<svg width="1479" height="741" viewBox="0 0 1479 741" fill="none" xmlns="http://www.w3.org/2000/svg">
<path d="M695 118V292.5" stroke="#5695FB" stroke-width="5"/>
<path d="M695 408.5V622" stroke="#5695FB" stroke-width="5"/>
<path d="M424.5 460.5L505 407" stroke="#5695FB" stroke-width="5"/>
<path d="M153 349.5H500.5" stroke="#5695FB" stroke-width="5"/>
<path d="M435 229L501.5 294" stroke="#5695FB" stroke-width="5"/>
<path d="M887.5 296.5L960.5 232.5" stroke="#5695FB" stroke-width="5"/>
<path d="M886 404L969 460" stroke="#5695FB" stroke-width="5"/>
<path d="M890 350.5H1324.5" stroke="#5695FB" stroke-width="5"/>
<path d="M295.8 471C288.041 471 281.629 477.412 281.629 485.171V563.115H276.314C273.414 563.115 271.001 565.78 271 568.429V575.515C271 584.255 278.202 591.458 286.943 591.458H425.115C433.856 591.458 441.058 584.255 441.058 575.515V568.429C441.058 565.646 438.526 563.115 435.744 563.115H430.43V485.171C430.43 477.412 424.017 471 416.258 471H295.8ZM295.8 481.629H416.258C418.313 481.629 419.801 483.117 419.801 485.171V563.115H292.257V485.171C292.257 483.117 293.745 481.629 295.8 481.629V481.629ZM281.629 573.743H430.43V575.515C430.43 578.551 428.151 580.829 425.115 580.829H286.943C283.907 580.829 281.474 578.547 281.629 575.515V573.743Z" fill="#2C323F"/>
<path d="M335.301 522.004C336.429 520.565 338.541 520.278 340.014 521.382C341.489 522.488 341.795 524.574 340.653 526.047C338.095 529.34 336.742 533.255 336.742 537.374C336.742 540.079 337.329 541.698 338.088 542.727C338.847 543.756 339.868 544.319 340.997 544.743C342.642 545.36 344.781 545.685 347.281 545.848C349.737 546.007 352.464 546.007 355.312 546.007H357.51C360.4 546.012 363.171 546.015 365.662 545.852C368.161 545.688 370.301 545.361 371.946 544.743C373.07 544.319 374.091 543.756 374.852 542.727C375.612 541.697 376.201 540.078 376.201 537.374C376.201 533.425 374.958 529.649 372.598 526.443L372.594 526.438C371.504 524.936 371.858 522.867 373.364 521.795L373.374 521.788C374.882 520.742 376.963 521.068 378.061 522.541L378.064 522.546C381.263 526.891 382.953 532.026 382.989 537.367V537.374C382.989 540.875 382.27 543.762 380.717 546.107L380.716 546.109C379.26 548.301 377.11 549.917 374.377 550.947C370.019 552.588 364.586 552.655 358.578 552.655H355.307C348.939 552.655 343.182 552.655 338.615 550.949C335.88 549.93 333.717 548.299 332.271 546.105C330.72 543.75 330 540.877 330 537.374C330 531.781 331.837 526.468 335.297 522.008L335.301 522.004ZM356.09 494C365.112 494 372.468 501.333 372.468 510.372C372.468 519.41 365.113 526.756 356.09 526.756C347.066 526.756 339.712 519.398 339.712 510.372C339.712 501.345 347.067 494 356.09 494ZM356.09 500.883C350.861 500.883 346.604 505.14 346.604 510.372C346.605 515.604 350.861 519.86 356.09 519.86C361.318 519.86 365.574 515.604 365.574 510.372C365.574 505.14 361.319 500.883 356.09 500.883Z" fill="#5695FB"/>
<path d="M295.8 149C288.041 149 281.629 155.412 281.629 163.171V241.115H276.314C273.414 241.115 271.001 243.78 271 246.429V253.515C271 262.255 278.202 269.458 286.943 269.458H425.115C433.856 269.458 441.058 262.255 441.058 253.515V246.429C441.058 243.646 438.526 241.115 435.744 241.115H430.43V163.171C430.43 155.412 424.017 149 416.258 149H295.8ZM295.8 159.629H416.258C418.313 159.629 419.801 161.117 419.801 163.171V241.115H292.257V163.171C292.257 161.117 293.745 159.629 295.8 159.629V159.629ZM281.629 251.743H430.43V253.515C430.43 256.551 428.151 258.829 425.115 258.829H286.943C283.907 258.829 281.474 256.547 281.629 253.515V251.743Z" fill="#2C323F"/>
<path d="M335.301 200.004C336.429 198.565 338.541 198.278 340.014 199.382C341.489 200.488 341.795 202.574 340.653 204.047C338.095 207.34 336.742 211.255 336.742 215.374C336.742 218.079 337.329 219.698 338.088 220.727C338.847 221.756 339.868 222.319 340.997 222.743C342.642 223.36 344.781 223.685 347.281 223.848C349.737 224.007 352.464 224.007 355.312 224.007H357.51C360.4 224.012 363.171 224.015 365.662 223.852C368.161 223.688 370.301 223.361 371.946 222.743C373.07 222.319 374.091 221.756 374.852 220.727C375.612 219.697 376.201 218.078 376.201 215.374C376.201 211.425 374.958 207.649 372.598 204.443L372.594 204.438C371.504 202.936 371.858 200.867 373.364 199.795L373.374 199.788C374.882 198.742 376.963 199.068 378.061 200.541L378.064 200.546C381.263 204.891 382.953 210.026 382.989 215.367V215.374C382.989 218.875 382.27 221.762 380.717 224.107L380.716 224.109C379.26 226.301 377.11 227.917 374.377 228.947C370.019 230.588 364.586 230.655 358.578 230.655H355.307C348.939 230.655 343.182 230.655 338.615 228.949C335.88 227.93 333.717 226.299 332.271 224.105C330.72 221.75 330 218.877 330 215.374C330 209.781 331.837 204.468 335.297 200.008L335.301 200.004ZM356.09 172C365.112 172 372.468 179.333 372.468 188.372C372.468 197.41 365.113 204.756 356.09 204.756C347.066 204.756 339.712 197.398 339.712 188.372C339.712 179.345 347.067 172 356.09 172ZM356.09 178.883C350.861 178.883 346.604 183.14 346.604 188.372C346.605 193.604 350.861 197.86 356.09 197.86C361.318 197.86 365.574 193.604 365.574 188.372C365.574 183.14 361.319 178.883 356.09 178.883Z" fill="#5695FB"/>
<path d="M636.8 620C629.041 620 622.629 626.412 622.629 634.171V712.115H617.314C614.414 712.115 612.001 714.78 612 717.429V724.515C612 733.255 619.202 740.458 627.943 740.458H766.115C774.856 740.458 782.058 733.255 782.058 724.515V717.429C782.058 714.646 779.526 712.115 776.744 712.115H771.43V634.171C771.43 626.412 765.017 620 757.258 620H636.8ZM636.8 630.629H757.258C759.313 630.629 760.801 632.117 760.801 634.171V712.115H633.257V634.171C633.257 632.117 634.745 630.629 636.8 630.629V630.629ZM622.629 722.743H771.43V724.515C771.43 727.551 769.151 729.829 766.115 729.829H627.943C624.907 729.829 622.474 727.547 622.629 724.515V722.743Z" fill="#2C323F"/>
<path d="M676.301 671.004C677.429 669.565 679.541 669.278 681.014 670.382C682.489 671.488 682.795 673.574 681.653 675.047C679.095 678.34 677.742 682.255 677.742 686.374C677.742 689.079 678.329 690.698 679.088 691.727C679.847 692.756 680.868 693.319 681.997 693.743C683.642 694.36 685.781 694.685 688.281 694.848C690.737 695.007 693.464 695.007 696.312 695.007H698.51C701.4 695.012 704.171 695.015 706.662 694.852C709.161 694.688 711.301 694.361 712.946 693.743C714.07 693.319 715.091 692.756 715.852 691.727C716.612 690.697 717.201 689.078 717.201 686.374C717.201 682.425 715.958 678.649 713.598 675.443L713.594 675.438C712.504 673.936 712.858 671.867 714.364 670.795L714.374 670.788C715.882 669.742 717.963 670.068 719.061 671.541L719.064 671.546C722.263 675.891 723.953 681.026 723.989 686.367V686.374C723.989 689.875 723.27 692.762 721.717 695.107L721.716 695.109C720.26 697.301 718.11 698.917 715.377 699.947C711.019 701.588 705.586 701.655 699.578 701.655H696.307C689.939 701.655 684.182 701.655 679.615 699.949C676.88 698.93 674.717 697.299 673.271 695.105C671.72 692.75 671 689.877 671 686.374C671 680.781 672.837 675.468 676.297 671.008L676.301 671.004ZM697.09 643C706.112 643 713.468 650.333 713.468 659.372C713.468 668.41 706.113 675.756 697.09 675.756C688.066 675.756 680.712 668.398 680.712 659.372C680.712 650.345 688.067 643 697.09 643ZM697.09 649.883C691.861 649.883 687.604 654.14 687.604 659.372C687.605 664.604 691.861 668.86 697.09 668.86C702.318 668.86 706.574 664.604 706.574 659.372C706.574 654.14 702.319 649.883 697.09 649.883Z" fill="#5695FB"/>
<path d="M636.8 0C629.041 0 622.629 6.41239 622.629 14.1715V92.1147H617.314C614.414 92.1147 612.001 94.7795 612 97.4291V104.515C612 113.255 619.202 120.458 627.943 120.458H766.115C774.856 120.458 782.058 113.255 782.058 104.515V97.4291C782.058 94.6465 779.526 92.1149 776.744 92.1147H771.43V14.1715C771.43 6.41239 765.017 0 757.258 0H636.8ZM636.8 10.6286H757.258C759.313 10.6286 760.801 12.1168 760.801 14.1715V92.1147H633.257V14.1715C633.257 12.1168 634.745 10.6286 636.8 10.6286V10.6286ZM622.629 102.743H771.43V104.515C771.43 107.551 769.151 109.829 766.115 109.829H627.943C624.907 109.829 622.474 107.547 622.629 104.515V102.743Z" fill="#2C323F"/>
<path d="M676.301 51.0039C677.429 49.5645 679.541 49.2781 681.014 50.3818C682.489 51.4881 682.795 53.5745 681.653 55.0469C679.095 58.3399 677.742 62.2554 677.742 66.374C677.742 69.0789 678.329 70.6976 679.088 71.7266C679.847 72.7555 680.868 73.3193 681.997 73.7432C683.642 74.3605 685.781 74.6851 688.281 74.8477C690.737 75.0074 693.464 75.0069 696.312 75.0068H698.51C701.4 75.0125 704.171 75.0149 706.662 74.8516C709.161 74.6876 711.301 74.3606 712.946 73.7432C714.07 73.3193 715.091 72.7558 715.852 71.7266C716.612 70.6972 717.201 69.0779 717.201 66.374C717.201 62.425 715.958 58.6487 713.598 55.4434L713.594 55.4375C712.504 53.9356 712.858 51.8674 714.364 50.7949L714.374 50.7881C715.882 49.7417 717.963 50.0681 719.061 51.541L719.064 51.5459C722.263 55.8914 723.953 61.0255 723.989 66.3672V66.374C723.989 69.8752 723.27 72.7618 721.717 75.1074L721.716 75.1094C720.26 77.3006 718.11 78.9169 715.377 79.9473C711.019 81.5878 705.586 81.6553 699.578 81.6553H696.307C689.939 81.6554 684.182 81.6554 679.615 79.9492C676.88 78.9297 674.717 77.2995 673.271 75.1055C671.72 72.7505 671 69.8767 671 66.374C671 60.781 672.837 55.4682 676.297 51.0078L676.301 51.0039ZM697.09 23C706.112 23.0001 713.468 30.3328 713.468 39.3721C713.468 48.4102 706.113 55.7558 697.09 55.7559C688.066 55.7559 680.712 48.3979 680.712 39.3721C680.712 30.3451 688.067 23 697.09 23ZM697.09 29.8828C691.861 29.8828 687.604 34.1403 687.604 39.3721C687.605 44.6037 691.861 48.8604 697.09 48.8604C702.318 48.8602 706.574 44.6037 706.574 39.3721C706.574 34.1404 702.319 29.8829 697.09 29.8828Z" fill="#5695FB"/>
<path d="M977.8 150C970.041 150 963.629 156.412 963.629 164.171V242.115H958.314C955.414 242.115 953.001 244.78 953 247.429V254.515C953 263.255 960.202 270.458 968.943 270.458H1107.12C1115.86 270.458 1123.06 263.255 1123.06 254.515V247.429C1123.06 244.646 1120.53 242.115 1117.74 242.115H1112.43V164.171C1112.43 156.412 1106.02 150 1098.26 150H977.8ZM977.8 160.629H1098.26C1100.31 160.629 1101.8 162.117 1101.8 164.171V242.115H974.257V164.171C974.257 162.117 975.745 160.629 977.8 160.629V160.629ZM963.629 252.743H1112.43V254.515C1112.43 257.551 1110.15 259.829 1107.12 259.829H968.943C965.907 259.829 963.474 257.547 963.629 254.515V252.743Z" fill="#2C323F"/>
<path d="M1017.3 201.004C1018.43 199.565 1020.54 199.278 1022.01 200.382C1023.49 201.488 1023.8 203.574 1022.65 205.047C1020.09 208.34 1018.74 212.255 1018.74 216.374C1018.74 219.079 1019.33 220.698 1020.09 221.727C1020.85 222.756 1021.87 223.319 1023 223.743C1024.64 224.36 1026.78 224.685 1029.28 224.848C1031.74 225.007 1034.46 225.007 1037.31 225.007H1039.51C1042.4 225.012 1045.17 225.015 1047.66 224.852C1050.16 224.688 1052.3 224.361 1053.95 223.743C1055.07 223.319 1056.09 222.756 1056.85 221.727C1057.61 220.697 1058.2 219.078 1058.2 216.374C1058.2 212.425 1056.96 208.649 1054.6 205.443L1054.59 205.438C1053.5 203.936 1053.86 201.867 1055.36 200.795L1055.37 200.788C1056.88 199.742 1058.96 200.068 1060.06 201.541L1060.06 201.546C1063.26 205.891 1064.95 211.026 1064.99 216.367V216.374C1064.99 219.875 1064.27 222.762 1062.72 225.107L1062.72 225.109C1061.26 227.301 1059.11 228.917 1056.38 229.947C1052.02 231.588 1046.59 231.655 1040.58 231.655H1037.31C1030.94 231.655 1025.18 231.655 1020.62 229.949C1017.88 228.93 1015.72 227.299 1014.27 225.105C1012.72 222.75 1012 219.877 1012 216.374C1012 210.781 1013.84 205.468 1017.3 201.008L1017.3 201.004ZM1038.09 173C1047.11 173 1054.47 180.333 1054.47 189.372C1054.47 198.41 1047.11 205.756 1038.09 205.756C1029.07 205.756 1021.71 198.398 1021.71 189.372C1021.71 180.345 1029.07 173 1038.09 173ZM1038.09 179.883C1032.86 179.883 1028.6 184.14 1028.6 189.372C1028.6 194.604 1032.86 198.86 1038.09 198.86C1043.32 198.86 1047.57 194.604 1047.57 189.372C1047.57 184.14 1043.32 179.883 1038.09 179.883Z" fill="#5695FB"/>
<path d="M977.8 471C970.041 471 963.629 477.412 963.629 485.171V563.115H958.314C955.414 563.115 953.001 565.78 953 568.429V575.515C953 584.255 960.202 591.458 968.943 591.458H1107.12C1115.86 591.458 1123.06 584.255 1123.06 575.515V568.429C1123.06 565.646 1120.53 563.115 1117.74 563.115H1112.43V485.171C1112.43 477.412 1106.02 471 1098.26 471H977.8ZM977.8 481.629H1098.26C1100.31 481.629 1101.8 483.117 1101.8 485.171V563.115H974.257V485.171C974.257 483.117 975.745 481.629 977.8 481.629V481.629ZM963.629 573.743H1112.43V575.515C1112.43 578.551 1110.15 580.829 1107.12 580.829H968.943C965.907 580.829 963.474 578.547 963.629 575.515V573.743Z" fill="#2C323F"/>
<path d="M1017.3 522.004C1018.43 520.565 1020.54 520.278 1022.01 521.382C1023.49 522.488 1023.8 524.574 1022.65 526.047C1020.09 529.34 1018.74 533.255 1018.74 537.374C1018.74 540.079 1019.33 541.698 1020.09 542.727C1020.85 543.756 1021.87 544.319 1023 544.743C1024.64 545.36 1026.78 545.685 1029.28 545.848C1031.74 546.007 1034.46 546.007 1037.31 546.007H1039.51C1042.4 546.012 1045.17 546.015 1047.66 545.852C1050.16 545.688 1052.3 545.361 1053.95 544.743C1055.07 544.319 1056.09 543.756 1056.85 542.727C1057.61 541.697 1058.2 540.078 1058.2 537.374C1058.2 533.425 1056.96 529.649 1054.6 526.443L1054.59 526.438C1053.5 524.936 1053.86 522.867 1055.36 521.795L1055.37 521.788C1056.88 520.742 1058.96 521.068 1060.06 522.541L1060.06 522.546C1063.26 526.891 1064.95 532.026 1064.99 537.367V537.374C1064.99 540.875 1064.27 543.762 1062.72 546.107L1062.72 546.109C1061.26 548.301 1059.11 549.917 1056.38 550.947C1052.02 552.588 1046.59 552.655 1040.58 552.655H1037.31C1030.94 552.655 1025.18 552.655 1020.62 550.949C1017.88 549.93 1015.72 548.299 1014.27 546.105C1012.72 543.75 1012 540.877 1012 537.374C1012 531.781 1013.84 526.468 1017.3 522.008L1017.3 522.004ZM1038.09 494C1047.11 494 1054.47 501.333 1054.47 510.372C1054.47 519.41 1047.11 526.756 1038.09 526.756C1029.07 526.756 1021.71 519.398 1021.71 510.372C1021.71 501.345 1029.07 494 1038.09 494ZM1038.09 500.883C1032.86 500.883 1028.6 505.14 1028.6 510.372C1028.6 515.604 1032.86 519.86 1038.09 519.86C1043.32 519.86 1047.57 515.604 1047.57 510.372C1047.57 505.14 1043.32 500.883 1038.09 500.883Z" fill="#5695FB"/>
<path d="M1332.8 293C1325.04 293 1318.63 299.412 1318.63 307.171V385.115H1313.31C1310.41 385.115 1308 387.78 1308 390.429V397.515C1308 406.255 1315.2 413.458 1323.94 413.458H1462.12C1470.86 413.458 1478.06 406.255 1478.06 397.515V390.429C1478.06 387.646 1475.53 385.115 1472.74 385.115H1467.43V307.171C1467.43 299.412 1461.02 293 1453.26 293H1332.8ZM1332.8 303.629H1453.26C1455.31 303.629 1456.8 305.117 1456.8 307.171V385.115H1329.26V307.171C1329.26 305.117 1330.75 303.629 1332.8 303.629V303.629ZM1318.63 395.743H1467.43V397.515C1467.43 400.551 1465.15 402.829 1462.12 402.829H1323.94C1320.91 402.829 1318.47 400.547 1318.63 397.515V395.743Z" fill="#2C323F"/>
<path d="M1372.3 344.004C1373.43 342.565 1375.54 342.278 1377.01 343.382C1378.49 344.488 1378.8 346.574 1377.65 348.047C1375.09 351.34 1373.74 355.255 1373.74 359.374C1373.74 362.079 1374.33 363.698 1375.09 364.727C1375.85 365.756 1376.87 366.319 1378 366.743C1379.64 367.36 1381.78 367.685 1384.28 367.848C1386.74 368.007 1389.46 368.007 1392.31 368.007H1394.51C1397.4 368.012 1400.17 368.015 1402.66 367.852C1405.16 367.688 1407.3 367.361 1408.95 366.743C1410.07 366.319 1411.09 365.756 1411.85 364.727C1412.61 363.697 1413.2 362.078 1413.2 359.374C1413.2 355.425 1411.96 351.649 1409.6 348.443L1409.59 348.438C1408.5 346.936 1408.86 344.867 1410.36 343.795L1410.37 343.788C1411.88 342.742 1413.96 343.068 1415.06 344.541L1415.06 344.546C1418.26 348.891 1419.95 354.026 1419.99 359.367V359.374C1419.99 362.875 1419.27 365.762 1417.72 368.107L1417.72 368.109C1416.26 370.301 1414.11 371.917 1411.38 372.947C1407.02 374.588 1401.59 374.655 1395.58 374.655H1392.31C1385.94 374.655 1380.18 374.655 1375.62 372.949C1372.88 371.93 1370.72 370.299 1369.27 368.105C1367.72 365.75 1367 362.877 1367 359.374C1367 353.781 1368.84 348.468 1372.3 344.008L1372.3 344.004ZM1393.09 316C1402.11 316 1409.47 323.333 1409.47 332.372C1409.47 341.41 1402.11 348.756 1393.09 348.756C1384.07 348.756 1376.71 341.398 1376.71 332.372C1376.71 323.345 1384.07 316 1393.09 316ZM1393.09 322.883C1387.86 322.883 1383.6 327.14 1383.6 332.372C1383.6 337.604 1387.86 341.86 1393.09 341.86C1398.32 341.86 1402.57 337.604 1402.57 332.372C1402.57 327.14 1398.32 322.883 1393.09 322.883Z" fill="#5695FB"/>
<path d="M24.8001 293C17.0409 293 10.6286 299.412 10.6286 307.171V385.115H5.31431C2.41429 385.115 0.00124001 387.78 0 390.429V397.515C0 406.255 7.20249 413.458 15.9429 413.458H154.115C162.856 413.458 170.058 406.255 170.058 397.515V390.429C170.058 387.646 167.526 385.115 164.744 385.115H159.43V307.171C159.43 299.412 153.017 293 145.258 293H24.8001ZM24.8001 303.629H145.258C147.313 303.629 148.801 305.117 148.801 307.171V385.115H21.2572V307.171C21.2572 305.117 22.7454 303.629 24.8001 303.629V303.629ZM10.6286 395.743H159.43V397.515C159.43 400.551 157.151 402.829 154.115 402.829H15.9429C12.9069 402.829 10.4738 400.547 10.6286 397.515V395.743Z" fill="#2C323F"/>
<path d="M64.3008 344.004C65.4294 342.565 67.5412 342.278 69.0137 343.382C70.4894 344.488 70.7951 346.574 69.6533 348.047C67.0945 351.34 65.7422 355.255 65.7422 359.374C65.7422 362.079 66.3291 363.698 67.0879 364.727C67.8467 365.756 68.8679 366.319 69.9971 366.743C71.642 367.36 73.7809 367.685 76.2812 367.848C78.7373 368.007 81.4641 368.007 84.3115 368.007H86.5098C89.4003 368.012 92.1713 368.015 94.6621 367.852C97.1614 367.688 99.3009 367.361 100.946 366.743C102.07 366.319 103.091 365.756 103.852 364.727C104.612 363.697 105.201 362.078 105.201 359.374C105.201 355.425 103.958 351.649 101.598 348.443L101.594 348.438C100.504 346.936 100.858 344.867 102.364 343.795L102.374 343.788C103.882 342.742 105.963 343.068 107.061 344.541L107.064 344.546C110.263 348.891 111.953 354.026 111.989 359.367V359.374C111.989 362.875 111.27 365.762 109.717 368.107L109.716 368.109C108.26 370.301 106.11 371.917 103.377 372.947C99.0192 374.588 93.5864 374.655 87.5781 374.655H84.3066C77.9387 374.655 72.1817 374.655 67.6152 372.949C64.8797 371.93 62.7168 370.299 61.2715 368.105C59.7204 365.75 59 362.877 59 359.374C59 353.781 60.8366 348.468 64.2969 344.008L64.3008 344.004ZM85.0898 316C94.1117 316 101.468 323.333 101.468 332.372C101.468 341.41 94.1126 348.756 85.0898 348.756C76.0665 348.756 68.7121 341.398 68.7119 332.372C68.7119 323.345 76.0674 316 85.0898 316ZM85.0898 322.883C79.861 322.883 75.6045 327.14 75.6045 332.372C75.6046 337.604 79.8611 341.86 85.0898 341.86C90.3185 341.86 94.5741 337.604 94.5742 332.372C94.5742 327.14 90.3186 322.883 85.0898 322.883Z" fill="#5695FB"/>
<path d="M692.042 378.506L683.159 387.439C680.335 390.282 675.753 390.282 672.925 387.439L664.042 378.506L678.042 364.428L692.042 378.506ZM724.043 378.506L715.342 387.439C712.576 390.282 708.087 390.282 705.317 387.439L696.615 378.506L710.329 364.428L724.043 378.506ZM675.471 362.186L666.77 370.915C664.003 373.694 659.514 373.694 656.743 370.915L648.042 362.186L661.756 348.428L675.471 362.186ZM708.043 362.186L699.342 370.915C696.576 373.694 692.086 373.694 689.316 370.915L680.615 362.186L694.328 348.428L708.043 362.186ZM740.612 362.186L731.91 370.915C729.144 373.694 724.654 373.694 721.884 370.915L713.183 362.186L726.897 348.428L740.612 362.186ZM692.042 345.935L683.159 354.867C680.335 357.71 675.753 357.71 672.925 354.867L664.042 345.935L678.042 331.857L692.042 345.935ZM724.043 345.935L715.342 354.867C712.576 357.71 708.087 357.71 705.317 354.867L696.615 345.935L710.329 331.857L724.043 345.935Z" fill="#5695FB"/>
<path d="M777.91 293C782.242 293 785.754 296.521 785.754 300.864V401.136C785.754 405.479 782.242 409 777.91 409H614.742C610.41 409 606.898 405.479 606.897 401.136V300.864C606.898 296.521 610.41 293 614.742 293H777.91ZM613.173 320.999V401.136C613.173 402.004 613.876 402.708 614.742 402.708H777.91C778.776 402.708 779.478 402.004 779.479 401.136V320.999H613.173ZM614.742 299.292C613.876 299.292 613.173 299.996 613.173 300.864V314.714H779.479V300.864C779.478 299.996 778.776 299.292 777.91 299.292H614.742ZM622.04 302.715C624.407 302.715 626.325 304.633 626.325 307C626.325 309.367 624.407 311.286 622.04 311.286C619.673 311.286 617.754 309.367 617.754 307C617.754 304.633 619.673 302.715 622.04 302.715ZM634.041 302.715C636.408 302.715 638.327 304.633 638.327 307C638.327 309.367 636.408 311.286 634.041 311.286C631.674 311.286 629.755 309.367 629.755 307C629.755 304.633 631.674 302.715 634.041 302.715ZM645.754 302.715C648.278 302.715 650.325 304.633 650.325 307C650.325 309.367 648.279 311.286 645.754 311.286C643.229 311.286 641.183 309.367 641.183 307C641.183 304.633 643.229 302.715 645.754 302.715Z" fill="#2C323F"/>
<path d="M791.55 353.762V370.333C791.55 375.029 795.14 378.619 799.836 378.619H882.693C887.388 378.619 890.978 375.029 890.978 370.333V353.762H791.55ZM885.454 370.333C885.454 371.991 884.35 373.095 882.693 373.095H799.836C798.178 373.095 797.074 371.991 797.074 370.333V359.286H885.454V370.333Z" fill="#2C323F"/>
<path d="M821.931 363.428H805.36V368.952H821.931V363.428Z" fill="#2C323F"/>
<path d="M873.027 370.333C875.315 370.333 877.17 368.478 877.17 366.19C877.17 363.902 875.315 362.047 873.027 362.047C870.739 362.047 868.884 363.902 868.884 366.19C868.884 368.478 870.739 370.333 873.027 370.333Z" fill="#2C323F"/>
<path d="M791.55 384.143V400.714C791.55 405.41 795.14 409 799.836 409H882.693C887.388 409 890.978 405.41 890.978 400.714V384.143H791.55ZM885.454 400.714C885.454 402.371 884.35 403.476 882.693 403.476H799.836C798.178 403.476 797.074 402.371 797.074 400.714V389.667H885.454V400.714Z" fill="#2C323F"/>
<path d="M821.931 393.81H805.36V399.333H821.931V393.81Z" fill="#2C323F"/>
<path d="M873.027 400.714C875.315 400.714 877.17 398.859 877.17 396.571C877.17 394.283 875.315 392.429 873.027 392.429C870.739 392.429 868.884 394.283 868.884 396.571C868.884 398.859 870.739 400.714 873.027 400.714Z" fill="#2C323F"/>
<path d="M498 353.762V370.333C498 375.029 501.59 378.619 506.286 378.619H589.143C593.838 378.619 597.428 375.029 597.428 370.333V353.762H498ZM591.905 370.333C591.905 371.991 590.8 373.095 589.143 373.095H506.286C504.629 373.095 503.524 371.991 503.524 370.333V359.286H591.905V370.333Z" fill="#2C323F"/>
<path d="M528.38 363.428H511.808V368.952H528.38V363.428Z" fill="#2C323F"/>
<path d="M579.477 370.333C581.765 370.333 583.62 368.478 583.62 366.19C583.62 363.902 581.765 362.047 579.477 362.047C577.189 362.047 575.334 363.902 575.334 366.19C575.334 368.478 577.189 370.333 579.477 370.333Z" fill="#2C323F"/>
<path d="M498 384.143V400.714C498 405.41 501.59 409 506.286 409H589.143C593.838 409 597.428 405.41 597.428 400.714V384.143H498ZM591.905 400.714C591.905 402.371 590.8 403.476 589.143 403.476H506.286C504.629 403.476 503.524 402.371 503.524 400.714V389.667H591.905V400.714Z" fill="#2C323F"/>
<path d="M528.38 393.81H511.808V399.333H528.38V393.81Z" fill="#2C323F"/>
<path d="M579.477 400.714C581.765 400.714 583.62 398.859 583.62 396.571C583.62 394.283 581.765 392.429 579.477 392.429C577.189 392.429 575.334 394.283 575.334 396.571C575.334 398.859 577.189 400.714 579.477 400.714Z" fill="#2C323F"/>
<path d="M791.55 293V309.571C791.55 314.267 795.14 317.857 799.836 317.857H882.693C887.388 317.857 890.978 314.267 890.978 309.571V293H791.55ZM885.454 309.571C885.454 311.229 884.35 312.333 882.693 312.333H799.836C798.178 312.333 797.074 311.229 797.074 309.571V298.524H885.454V309.571Z" fill="#2C323F"/>
<path d="M821.931 302.667H805.36V308.191H821.931V302.667Z" fill="#2C323F"/>
<path d="M873.027 309.571C875.315 309.571 877.17 307.717 877.17 305.428C877.17 303.14 875.315 301.286 873.027 301.286C870.739 301.286 868.884 303.14 868.884 305.428C868.884 307.717 870.739 309.571 873.027 309.571Z" fill="#2C323F"/>
<path d="M791.55 323.381V339.952C791.55 344.648 795.14 348.238 799.836 348.238H882.693C887.388 348.238 890.978 344.648 890.978 339.952V323.381H791.55ZM885.454 339.952C885.454 341.61 884.35 342.714 882.693 342.714H799.836C798.178 342.714 797.074 341.61 797.074 339.952V328.905H885.454V339.952Z" fill="#2C323F"/>
<path d="M821.931 333.048H805.36V338.572H821.931V333.048Z" fill="#2C323F"/>
<path d="M873.027 339.953C875.315 339.953 877.17 338.098 877.17 335.81C877.17 333.522 875.315 331.667 873.027 331.667C870.739 331.667 868.884 333.522 868.884 335.81C868.884 338.098 870.739 339.953 873.027 339.953Z" fill="#2C323F"/>
<path d="M498 293V309.571C498 314.267 501.59 317.857 506.286 317.857H589.143C593.838 317.857 597.428 314.267 597.428 309.571V293H498ZM591.905 309.571C591.905 311.229 590.8 312.333 589.143 312.333H506.286C504.629 312.333 503.524 311.229 503.524 309.571V298.524H591.905V309.571Z" fill="#2C323F"/>
<path d="M528.38 302.667H511.808V308.191H528.38V302.667Z" fill="#2C323F"/>
<path d="M579.477 309.571C581.765 309.571 583.62 307.717 583.62 305.428C583.62 303.14 581.765 301.286 579.477 301.286C577.189 301.286 575.334 303.14 575.334 305.428C575.334 307.717 577.189 309.571 579.477 309.571Z" fill="#2C323F"/>
<path d="M498 323.381V339.952C498 344.648 501.59 348.238 506.286 348.238H589.143C593.838 348.238 597.428 344.648 597.428 339.952V323.381H498ZM591.905 339.952C591.905 341.61 590.8 342.714 589.143 342.714H506.286C504.629 342.714 503.524 341.61 503.524 339.952V328.905H591.905V339.952Z" fill="#2C323F"/>
<path d="M528.38 333.048H511.808V338.572H528.38V333.048Z" fill="#2C323F"/>
<path d="M579.477 339.953C581.765 339.953 583.62 338.098 583.62 335.81C583.62 333.522 581.765 331.667 579.477 331.667C577.189 331.667 575.334 333.522 575.334 335.81C575.334 338.098 577.189 339.953 579.477 339.953Z" fill="#2C323F"/>
</svg>
