<svg width="1150" height="381" viewBox="0 0 1150 381" fill="none" xmlns="http://www.w3.org/2000/svg">
<path d="M10.3339 127.52C11.7526 127.52 12.9659 127.763 13.9739 128.248C14.9819 128.715 15.7566 129.396 16.2979 130.292C16.8579 131.169 17.1379 132.233 17.1379 133.484C17.1379 134.735 16.8579 135.808 16.2979 136.704C15.7566 137.581 14.9819 138.263 13.9739 138.748C12.9659 139.215 11.7526 139.448 10.3339 139.448H6.44192V146H2.57792V127.52H10.3339ZM9.74592 136.396C10.9033 136.396 11.7713 136.153 12.3499 135.668C12.9286 135.164 13.2179 134.436 13.2179 133.484C13.2179 132.513 12.9286 131.785 12.3499 131.3C11.7713 130.815 10.9033 130.572 9.74592 130.572H6.44192V136.396H9.74592ZM20.2875 146V132H23.6195L23.8715 134.744C24.2448 133.773 24.7862 133.027 25.4955 132.504C26.2235 131.981 27.1288 131.72 28.2115 131.72C28.5288 131.72 28.8182 131.748 29.0795 131.804C29.3408 131.86 29.5555 131.935 29.7235 132.028L29.2755 135.248C29.0888 135.173 28.8555 135.117 28.5755 135.08C28.3142 135.043 27.9688 135.024 27.5395 135.024C26.9795 135.024 26.4382 135.164 25.9155 135.444C25.3928 135.705 24.9635 136.116 24.6275 136.676C24.2915 137.217 24.1235 137.908 24.1235 138.748V146H20.2875ZM38.2105 131.72C39.6292 131.72 40.8705 132.009 41.9345 132.588C43.0172 133.167 43.8572 133.997 44.4545 135.08C45.0705 136.163 45.3785 137.469 45.3785 139C45.3785 140.512 45.0705 141.819 44.4545 142.92C43.8572 144.003 43.0172 144.833 41.9345 145.412C40.8705 145.991 39.6292 146.28 38.2105 146.28C36.8105 146.28 35.5692 145.991 34.4865 145.412C33.4039 144.833 32.5545 144.003 31.9385 142.92C31.3412 141.819 31.0425 140.512 31.0425 139C31.0425 137.469 31.3412 136.163 31.9385 135.08C32.5545 133.997 33.4039 133.167 34.4865 132.588C35.5692 132.009 36.8105 131.72 38.2105 131.72ZM38.2105 134.576C37.5012 134.576 36.8945 134.744 36.3905 135.08C35.9052 135.397 35.5319 135.883 35.2705 136.536C35.0092 137.189 34.8785 138.011 34.8785 139C34.8785 139.989 35.0092 140.811 35.2705 141.464C35.5319 142.117 35.9052 142.612 36.3905 142.948C36.8945 143.265 37.5012 143.424 38.2105 143.424C38.9012 143.424 39.4892 143.265 39.9745 142.948C40.4785 142.612 40.8612 142.117 41.1225 141.464C41.3839 140.811 41.5145 139.989 41.5145 139C41.5145 138.011 41.3839 137.189 41.1225 136.536C40.8612 135.883 40.4785 135.397 39.9745 135.08C39.4892 134.744 38.9012 134.576 38.2105 134.576ZM53.8803 146.28C52.7229 146.28 51.6869 145.991 50.7723 145.412C49.8763 144.833 49.1669 144.003 48.6443 142.92C48.1403 141.837 47.8883 140.54 47.8883 139.028C47.8883 137.479 48.1589 136.163 48.7003 135.08C49.2416 133.979 49.9696 133.148 50.8843 132.588C51.8176 132.009 52.8629 131.72 54.0203 131.72C55.2523 131.72 56.2696 132.075 57.0723 132.784C57.8749 133.493 58.3976 134.408 58.6403 135.528L58.2763 135.976V125.868H62.1123V146H58.6683L58.4163 141.744L58.8643 141.968C58.7523 142.845 58.4629 143.611 57.9963 144.264C57.5296 144.899 56.9416 145.393 56.2323 145.748C55.5229 146.103 54.7389 146.28 53.8803 146.28ZM55.0003 143.34C55.6723 143.34 56.2509 143.172 56.7363 142.836C57.2216 142.481 57.5949 141.968 57.8563 141.296C58.1363 140.624 58.2763 139.821 58.2763 138.888C58.2763 137.992 58.1456 137.236 57.8843 136.62C57.6229 135.985 57.2496 135.5 56.7643 135.164C56.2789 134.828 55.7096 134.66 55.0563 134.66C54.0109 134.66 53.1896 135.033 52.5923 135.78C52.0136 136.508 51.7243 137.581 51.7243 139C51.7243 140.419 52.0136 141.501 52.5923 142.248C53.1709 142.976 53.9736 143.34 55.0003 143.34ZM71.015 146.28C70.0816 146.28 69.2416 146.112 68.495 145.776C67.7483 145.44 67.151 144.908 66.703 144.18C66.2736 143.433 66.059 142.472 66.059 141.296V132H69.895V140.372C69.895 141.455 70.119 142.211 70.567 142.64C71.015 143.051 71.659 143.256 72.499 143.256C72.891 143.256 73.2736 143.191 73.647 143.06C74.0203 142.911 74.347 142.687 74.627 142.388C74.9256 142.089 75.159 141.707 75.327 141.24C75.495 140.755 75.579 140.185 75.579 139.532V132H79.415V146H75.999L75.859 143.564C75.3923 144.497 74.7483 145.188 73.927 145.636C73.1243 146.065 72.1536 146.28 71.015 146.28ZM89.8075 131.72C91.0582 131.72 92.1129 131.907 92.9715 132.28C93.8489 132.635 94.5489 133.129 95.0715 133.764C95.6129 134.38 95.9955 135.071 96.2195 135.836L92.6355 137.124C92.4489 136.284 92.1315 135.649 91.6835 135.22C91.2355 134.791 90.6289 134.576 89.8635 134.576C89.1542 134.576 88.5475 134.744 88.0435 135.08C87.5395 135.397 87.1569 135.892 86.8955 136.564C86.6342 137.217 86.5035 138.039 86.5035 139.028C86.5035 140.017 86.6342 140.839 86.8955 141.492C87.1755 142.145 87.5675 142.631 88.0715 142.948C88.5942 143.265 89.2009 143.424 89.8915 143.424C90.4515 143.424 90.9275 143.331 91.3195 143.144C91.7115 142.939 92.0289 142.649 92.2715 142.276C92.5329 141.903 92.7102 141.455 92.8035 140.932L96.2755 142.052C96.0702 142.892 95.6875 143.629 95.1275 144.264C94.5675 144.899 93.8489 145.393 92.9715 145.748C92.0942 146.103 91.0769 146.28 89.9195 146.28C88.4822 146.28 87.2129 145.991 86.1115 145.412C85.0102 144.833 84.1609 144.003 83.5635 142.92C82.9662 141.837 82.6675 140.531 82.6675 139C82.6675 137.469 82.9662 136.163 83.5635 135.08C84.1609 133.997 85.0009 133.167 86.0835 132.588C87.1662 132.009 88.4075 131.72 89.8075 131.72ZM104.212 127.716V141.436C104.212 142.108 104.38 142.603 104.716 142.92C105.071 143.219 105.547 143.368 106.144 143.368C106.63 143.368 107.04 143.303 107.376 143.172C107.731 143.023 108.048 142.827 108.328 142.584L108.944 145.132C108.496 145.487 107.936 145.767 107.264 145.972C106.592 146.177 105.883 146.28 105.136 146.28C104.203 146.28 103.372 146.14 102.644 145.86C101.935 145.58 101.375 145.132 100.964 144.516C100.572 143.9 100.376 143.079 100.376 142.052V128.78L104.212 127.716ZM108.692 132V134.856H97.8002V132H108.692ZM113.219 129.984C112.417 129.984 111.819 129.816 111.427 129.48C111.035 129.125 110.839 128.612 110.839 127.94C110.839 127.249 111.035 126.736 111.427 126.4C111.819 126.045 112.417 125.868 113.219 125.868C114.022 125.868 114.619 126.045 115.011 126.4C115.403 126.736 115.599 127.249 115.599 127.94C115.599 128.612 115.403 129.125 115.011 129.48C114.619 129.816 114.022 129.984 113.219 129.984ZM115.123 132V146H111.287V132H115.123ZM125.574 131.72C126.992 131.72 128.234 132.009 129.298 132.588C130.38 133.167 131.22 133.997 131.818 135.08C132.434 136.163 132.742 137.469 132.742 139C132.742 140.512 132.434 141.819 131.818 142.92C131.22 144.003 130.38 144.833 129.298 145.412C128.234 145.991 126.992 146.28 125.574 146.28C124.174 146.28 122.932 145.991 121.85 145.412C120.767 144.833 119.918 144.003 119.302 142.92C118.704 141.819 118.406 140.512 118.406 139C118.406 137.469 118.704 136.163 119.302 135.08C119.918 133.997 120.767 133.167 121.85 132.588C122.932 132.009 124.174 131.72 125.574 131.72ZM125.574 134.576C124.864 134.576 124.258 134.744 123.754 135.08C123.268 135.397 122.895 135.883 122.634 136.536C122.372 137.189 122.242 138.011 122.242 139C122.242 139.989 122.372 140.811 122.634 141.464C122.895 142.117 123.268 142.612 123.754 142.948C124.258 143.265 124.864 143.424 125.574 143.424C126.264 143.424 126.852 143.265 127.338 142.948C127.842 142.612 128.224 142.117 128.486 141.464C128.747 140.811 128.878 139.989 128.878 139C128.878 138.011 128.747 137.189 128.486 136.536C128.224 135.883 127.842 135.397 127.338 135.08C126.852 134.744 126.264 134.576 125.574 134.576ZM135.952 146V132H139.396L139.62 136.2L139.144 135.752C139.368 134.837 139.722 134.091 140.208 133.512C140.693 132.915 141.281 132.467 141.972 132.168C142.681 131.869 143.456 131.72 144.296 131.72C145.266 131.72 146.125 131.907 146.872 132.28C147.637 132.653 148.234 133.223 148.664 133.988C149.112 134.735 149.336 135.677 149.336 136.816V146H145.5V137.908C145.5 136.713 145.266 135.892 144.8 135.444C144.333 134.977 143.726 134.744 142.98 134.744C142.457 134.744 141.944 134.875 141.44 135.136C140.954 135.379 140.553 135.78 140.236 136.34C139.937 136.9 139.788 137.647 139.788 138.58V146H135.952ZM30.5406 164.72C31.9593 164.72 33.2006 165.009 34.2646 165.588C35.3473 166.167 36.1873 166.997 36.7846 168.08C37.4006 169.163 37.7086 170.469 37.7086 172C37.7086 173.512 37.4006 174.819 36.7846 175.92C36.1873 177.003 35.3473 177.833 34.2646 178.412C33.2006 178.991 31.9593 179.28 30.5406 179.28C29.1406 179.28 27.8993 178.991 26.8166 178.412C25.734 177.833 24.8846 177.003 24.2686 175.92C23.6713 174.819 23.3726 173.512 23.3726 172C23.3726 170.469 23.6713 169.163 24.2686 168.08C24.8846 166.997 25.734 166.167 26.8166 165.588C27.8993 165.009 29.1406 164.72 30.5406 164.72ZM30.5406 167.576C29.8313 167.576 29.2246 167.744 28.7206 168.08C28.2353 168.397 27.862 168.883 27.6006 169.536C27.3393 170.189 27.2086 171.011 27.2086 172C27.2086 172.989 27.3393 173.811 27.6006 174.464C27.862 175.117 28.2353 175.612 28.7206 175.948C29.2246 176.265 29.8313 176.424 30.5406 176.424C31.2313 176.424 31.8193 176.265 32.3046 175.948C32.8086 175.612 33.1913 175.117 33.4526 174.464C33.714 173.811 33.8446 172.989 33.8446 172C33.8446 171.011 33.714 170.189 33.4526 169.536C33.1913 168.883 32.8086 168.397 32.3046 168.08C31.8193 167.744 31.2313 167.576 30.5406 167.576ZM40.9183 179V165H44.2503L44.5023 167.744C44.8757 166.773 45.417 166.027 46.1263 165.504C46.8543 164.981 47.7597 164.72 48.8423 164.72C49.1597 164.72 49.449 164.748 49.7103 164.804C49.9717 164.86 50.1863 164.935 50.3543 165.028L49.9063 168.248C49.7197 168.173 49.4863 168.117 49.2063 168.08C48.945 168.043 48.5997 168.024 48.1703 168.024C47.6103 168.024 47.069 168.164 46.5463 168.444C46.0237 168.705 45.5943 169.116 45.2583 169.676C44.9223 170.217 44.7543 170.908 44.7543 171.748V179H40.9183ZM54.6628 162.984C53.8602 162.984 53.2628 162.816 52.8708 162.48C52.4788 162.125 52.2828 161.612 52.2828 160.94C52.2828 160.249 52.4788 159.736 52.8708 159.4C53.2628 159.045 53.8602 158.868 54.6628 158.868C55.4655 158.868 56.0628 159.045 56.4548 159.4C56.8468 159.736 57.0428 160.249 57.0428 160.94C57.0428 161.612 56.8468 162.125 56.4548 162.48C56.0628 162.816 55.4655 162.984 54.6628 162.984ZM56.5668 165V179H52.7308V165H56.5668ZM67.1292 179.28C65.6545 179.28 64.3665 178.991 63.2652 178.412C62.1825 177.833 61.3425 177.003 60.7452 175.92C60.1479 174.837 59.8492 173.531 59.8492 172C59.8492 170.469 60.1479 169.163 60.7452 168.08C61.3425 166.997 62.1732 166.167 63.2372 165.588C64.3199 165.009 65.5519 164.72 66.9332 164.72C68.3519 164.72 69.5559 165.009 70.5452 165.588C71.5345 166.148 72.2905 166.923 72.8132 167.912C73.3359 168.883 73.5972 169.993 73.5972 171.244C73.5972 171.617 73.5879 171.972 73.5692 172.308C73.5505 172.644 73.5225 172.943 73.4852 173.204H62.3132V170.544H71.8052L69.9572 171.216C69.9572 170.04 69.6865 169.135 69.1452 168.5C68.6225 167.865 67.8759 167.548 66.9052 167.548C66.1959 167.548 65.5799 167.716 65.0572 168.052C64.5532 168.388 64.1705 168.892 63.9092 169.564C63.6479 170.217 63.5172 171.048 63.5172 172.056C63.5172 173.045 63.6572 173.867 63.9372 174.52C64.2359 175.155 64.6465 175.631 65.1692 175.948C65.7105 176.265 66.3545 176.424 67.1012 176.424C67.9225 176.424 68.5852 176.265 69.0892 175.948C69.5932 175.631 69.9852 175.192 70.2652 174.632L73.3172 175.808C73.0185 176.536 72.5612 177.161 71.9452 177.684C71.3479 178.207 70.6292 178.608 69.7892 178.888C68.9679 179.149 68.0812 179.28 67.1292 179.28ZM76.848 179V165H80.292L80.516 169.2L80.04 168.752C80.264 167.837 80.6187 167.091 81.104 166.512C81.5894 165.915 82.1774 165.467 82.868 165.168C83.5774 164.869 84.352 164.72 85.192 164.72C86.1627 164.72 87.0214 164.907 87.768 165.28C88.5334 165.653 89.1307 166.223 89.56 166.988C90.008 167.735 90.232 168.677 90.232 169.816V179H86.396V170.908C86.396 169.713 86.1627 168.892 85.696 168.444C85.2294 167.977 84.6227 167.744 83.876 167.744C83.3534 167.744 82.84 167.875 82.336 168.136C81.8507 168.379 81.4494 168.78 81.132 169.34C80.8334 169.9 80.684 170.647 80.684 171.58V179H76.848ZM99.0306 160.716V174.436C99.0306 175.108 99.1986 175.603 99.5346 175.92C99.8893 176.219 100.365 176.368 100.963 176.368C101.448 176.368 101.859 176.303 102.195 176.172C102.549 176.023 102.867 175.827 103.147 175.584L103.763 178.132C103.315 178.487 102.755 178.767 102.083 178.972C101.411 179.177 100.701 179.28 99.9546 179.28C99.0213 179.28 98.1906 179.14 97.4626 178.86C96.7533 178.58 96.1933 178.132 95.7826 177.516C95.3906 176.9 95.1946 176.079 95.1946 175.052V161.78L99.0306 160.716ZM103.511 165V167.856H92.6186V165H103.511ZM112.602 179.28C111.127 179.28 109.839 178.991 108.738 178.412C107.655 177.833 106.815 177.003 106.218 175.92C105.621 174.837 105.322 173.531 105.322 172C105.322 170.469 105.621 169.163 106.218 168.08C106.815 166.997 107.646 166.167 108.71 165.588C109.793 165.009 111.025 164.72 112.406 164.72C113.825 164.72 115.029 165.009 116.018 165.588C117.007 166.148 117.763 166.923 118.286 167.912C118.809 168.883 119.07 169.993 119.07 171.244C119.07 171.617 119.061 171.972 119.042 172.308C119.023 172.644 118.995 172.943 118.958 173.204H107.786V170.544H117.278L115.43 171.216C115.43 170.04 115.159 169.135 114.618 168.5C114.095 167.865 113.349 167.548 112.378 167.548C111.669 167.548 111.053 167.716 110.53 168.052C110.026 168.388 109.643 168.892 109.382 169.564C109.121 170.217 108.99 171.048 108.99 172.056C108.99 173.045 109.13 173.867 109.41 174.52C109.709 175.155 110.119 175.631 110.642 175.948C111.183 176.265 111.827 176.424 112.574 176.424C113.395 176.424 114.058 176.265 114.562 175.948C115.066 175.631 115.458 175.192 115.738 174.632L118.79 175.808C118.491 176.536 118.034 177.161 117.418 177.684C116.821 178.207 116.102 178.608 115.262 178.888C114.441 179.149 113.554 179.28 112.602 179.28ZM127.613 179.28C126.455 179.28 125.419 178.991 124.505 178.412C123.609 177.833 122.899 177.003 122.377 175.92C121.873 174.837 121.621 173.54 121.621 172.028C121.621 170.479 121.891 169.163 122.433 168.08C122.974 166.979 123.702 166.148 124.617 165.588C125.55 165.009 126.595 164.72 127.753 164.72C128.985 164.72 130.002 165.075 130.805 165.784C131.607 166.493 132.13 167.408 132.373 168.528L132.009 168.976V158.868H135.845V179H132.401L132.149 174.744L132.597 174.968C132.485 175.845 132.195 176.611 131.729 177.264C131.262 177.899 130.674 178.393 129.965 178.748C129.255 179.103 128.471 179.28 127.613 179.28ZM128.733 176.34C129.405 176.34 129.983 176.172 130.469 175.836C130.954 175.481 131.327 174.968 131.589 174.296C131.869 173.624 132.009 172.821 132.009 171.888C132.009 170.992 131.878 170.236 131.617 169.62C131.355 168.985 130.982 168.5 130.497 168.164C130.011 167.828 129.442 167.66 128.789 167.66C127.743 167.66 126.922 168.033 126.325 168.78C125.746 169.508 125.457 170.581 125.457 172C125.457 173.419 125.746 174.501 126.325 175.248C126.903 175.976 127.706 176.34 128.733 176.34Z" fill="#36393F"/>
<g filter="url(#filter0_d_692_3151)">
<path d="M36 44.7936L64.2988 73.214C73.308 82.262 87.9079 82.262 96.9047 73.214L125.204 44.7936L80.6017 0L36 44.7936Z" fill="#5695FB"/>
</g>
<path d="M474.673 127.52V146H470.249L463.781 135.136L462.185 132.112H462.157L462.269 135.304V146H458.797V127.52H463.193L469.661 138.356L471.257 141.408H471.313L471.201 138.216V127.52H474.673ZM485.351 131.72C486.77 131.72 488.011 132.009 489.075 132.588C490.158 133.167 490.998 133.997 491.595 135.08C492.211 136.163 492.519 137.469 492.519 139C492.519 140.512 492.211 141.819 491.595 142.92C490.998 144.003 490.158 144.833 489.075 145.412C488.011 145.991 486.77 146.28 485.351 146.28C483.951 146.28 482.71 145.991 481.627 145.412C480.545 144.833 479.695 144.003 479.079 142.92C478.482 141.819 478.183 140.512 478.183 139C478.183 137.469 478.482 136.163 479.079 135.08C479.695 133.997 480.545 133.167 481.627 132.588C482.71 132.009 483.951 131.72 485.351 131.72ZM485.351 134.576C484.642 134.576 484.035 134.744 483.531 135.08C483.046 135.397 482.673 135.883 482.411 136.536C482.15 137.189 482.019 138.011 482.019 139C482.019 139.989 482.15 140.811 482.411 141.464C482.673 142.117 483.046 142.612 483.531 142.948C484.035 143.265 484.642 143.424 485.351 143.424C486.042 143.424 486.63 143.265 487.115 142.948C487.619 142.612 488.002 142.117 488.263 141.464C488.525 140.811 488.655 139.989 488.655 139C488.655 138.011 488.525 137.189 488.263 136.536C488.002 135.883 487.619 135.397 487.115 135.08C486.63 134.744 486.042 134.576 485.351 134.576ZM504.287 151.88V132H507.731L507.983 136.452L507.507 135.948C507.675 135.127 507.983 134.399 508.431 133.764C508.898 133.129 509.486 132.635 510.195 132.28C510.905 131.907 511.698 131.72 512.575 131.72C513.714 131.72 514.731 132.009 515.627 132.588C516.523 133.167 517.223 133.997 517.727 135.08C518.25 136.144 518.511 137.441 518.511 138.972C518.511 140.503 518.25 141.819 517.727 142.92C517.205 144.003 516.486 144.833 515.571 145.412C514.675 145.991 513.649 146.28 512.491 146.28C511.259 146.28 510.233 145.935 509.411 145.244C508.609 144.553 508.058 143.685 507.759 142.64L508.123 142.052V151.88H504.287ZM511.371 143.34C512.398 143.34 513.201 142.976 513.779 142.248C514.377 141.501 514.675 140.419 514.675 139C514.675 137.581 514.386 136.508 513.807 135.78C513.247 135.033 512.454 134.66 511.427 134.66C510.774 134.66 510.195 134.837 509.691 135.192C509.206 135.528 508.823 136.023 508.543 136.676C508.263 137.311 508.123 138.085 508.123 139C508.123 139.877 508.254 140.652 508.515 141.324C508.777 141.977 509.15 142.481 509.635 142.836C510.139 143.172 510.718 143.34 511.371 143.34ZM521.842 146V132H525.174L525.426 134.744C525.8 133.773 526.341 133.027 527.05 132.504C527.778 131.981 528.684 131.72 529.766 131.72C530.084 131.72 530.373 131.748 530.634 131.804C530.896 131.86 531.11 131.935 531.278 132.028L530.83 135.248C530.644 135.173 530.41 135.117 530.13 135.08C529.869 135.043 529.524 135.024 529.094 135.024C528.534 135.024 527.993 135.164 527.47 135.444C526.948 135.705 526.518 136.116 526.182 136.676C525.846 137.217 525.678 137.908 525.678 138.748V146H521.842ZM539.765 131.72C541.184 131.72 542.425 132.009 543.489 132.588C544.572 133.167 545.412 133.997 546.009 135.08C546.625 136.163 546.933 137.469 546.933 139C546.933 140.512 546.625 141.819 546.009 142.92C545.412 144.003 544.572 144.833 543.489 145.412C542.425 145.991 541.184 146.28 539.765 146.28C538.365 146.28 537.124 145.991 536.041 145.412C534.959 144.833 534.109 144.003 533.493 142.92C532.896 141.819 532.597 140.512 532.597 139C532.597 137.469 532.896 136.163 533.493 135.08C534.109 133.997 534.959 133.167 536.041 132.588C537.124 132.009 538.365 131.72 539.765 131.72ZM539.765 134.576C539.056 134.576 538.449 134.744 537.945 135.08C537.46 135.397 537.087 135.883 536.825 136.536C536.564 137.189 536.433 138.011 536.433 139C536.433 139.989 536.564 140.811 536.825 141.464C537.087 142.117 537.46 142.612 537.945 142.948C538.449 143.265 539.056 143.424 539.765 143.424C540.456 143.424 541.044 143.265 541.529 142.948C542.033 142.612 542.416 142.117 542.677 141.464C542.939 140.811 543.069 139.989 543.069 139C543.069 138.011 542.939 137.189 542.677 136.536C542.416 135.883 542.033 135.397 541.529 135.08C541.044 134.744 540.456 134.576 539.765 134.576ZM550.143 151.88V132H553.587L553.839 136.452L553.363 135.948C553.531 135.127 553.839 134.399 554.287 133.764C554.754 133.129 555.342 132.635 556.051 132.28C556.76 131.907 557.554 131.72 558.431 131.72C559.57 131.72 560.587 132.009 561.483 132.588C562.379 133.167 563.079 133.997 563.583 135.08C564.106 136.144 564.367 137.441 564.367 138.972C564.367 140.503 564.106 141.819 563.583 142.92C563.06 144.003 562.342 144.833 561.427 145.412C560.531 145.991 559.504 146.28 558.347 146.28C557.115 146.28 556.088 145.935 555.267 145.244C554.464 144.553 553.914 143.685 553.615 142.64L553.979 142.052V151.88H550.143ZM557.227 143.34C558.254 143.34 559.056 142.976 559.635 142.248C560.232 141.501 560.531 140.419 560.531 139C560.531 137.581 560.242 136.508 559.663 135.78C559.103 135.033 558.31 134.66 557.283 134.66C556.63 134.66 556.051 134.837 555.547 135.192C555.062 135.528 554.679 136.023 554.399 136.676C554.119 137.311 553.979 138.085 553.979 139C553.979 139.877 554.11 140.652 554.371 141.324C554.632 141.977 555.006 142.481 555.491 142.836C555.995 143.172 556.574 143.34 557.227 143.34ZM567.698 146V132H571.03L571.282 134.744C571.655 133.773 572.196 133.027 572.906 132.504C573.634 131.981 574.539 131.72 575.622 131.72C575.939 131.72 576.228 131.748 576.49 131.804C576.751 131.86 576.966 131.935 577.134 132.028L576.686 135.248C576.499 135.173 576.266 135.117 575.986 135.08C575.724 135.043 575.379 135.024 574.95 135.024C574.39 135.024 573.848 135.164 573.326 135.444C572.803 135.705 572.374 136.116 572.038 136.676C571.702 137.217 571.534 137.908 571.534 138.748V146H567.698ZM581.442 129.984C580.639 129.984 580.042 129.816 579.65 129.48C579.258 129.125 579.062 128.612 579.062 127.94C579.062 127.249 579.258 126.736 579.65 126.4C580.042 126.045 580.639 125.868 581.442 125.868C582.245 125.868 582.842 126.045 583.234 126.4C583.626 126.736 583.822 127.249 583.822 127.94C583.822 128.612 583.626 129.125 583.234 129.48C582.842 129.816 582.245 129.984 581.442 129.984ZM583.346 132V146H579.51V132H583.346ZM593.908 146.28C592.434 146.28 591.146 145.991 590.044 145.412C588.962 144.833 588.122 144.003 587.524 142.92C586.927 141.837 586.628 140.531 586.628 139C586.628 137.469 586.927 136.163 587.524 135.08C588.122 133.997 588.952 133.167 590.016 132.588C591.099 132.009 592.331 131.72 593.712 131.72C595.131 131.72 596.335 132.009 597.324 132.588C598.314 133.148 599.07 133.923 599.592 134.912C600.115 135.883 600.376 136.993 600.376 138.244C600.376 138.617 600.367 138.972 600.348 139.308C600.33 139.644 600.302 139.943 600.264 140.204H589.092V137.544H598.584L596.736 138.216C596.736 137.04 596.466 136.135 595.924 135.5C595.402 134.865 594.655 134.548 593.684 134.548C592.975 134.548 592.359 134.716 591.836 135.052C591.332 135.388 590.95 135.892 590.688 136.564C590.427 137.217 590.296 138.048 590.296 139.056C590.296 140.045 590.436 140.867 590.716 141.52C591.015 142.155 591.426 142.631 591.948 142.948C592.49 143.265 593.134 143.424 593.88 143.424C594.702 143.424 595.364 143.265 595.868 142.948C596.372 142.631 596.764 142.192 597.044 141.632L600.096 142.808C599.798 143.536 599.34 144.161 598.724 144.684C598.127 145.207 597.408 145.608 596.568 145.888C595.747 146.149 594.86 146.28 593.908 146.28ZM608.337 127.716V141.436C608.337 142.108 608.505 142.603 608.841 142.92C609.196 143.219 609.672 143.368 610.269 143.368C610.755 143.368 611.165 143.303 611.501 143.172C611.856 143.023 612.173 142.827 612.453 142.584L613.069 145.132C612.621 145.487 612.061 145.767 611.389 145.972C610.717 146.177 610.008 146.28 609.261 146.28C608.328 146.28 607.497 146.14 606.769 145.86C606.06 145.58 605.5 145.132 605.089 144.516C604.697 143.9 604.501 143.079 604.501 142.052V128.78L608.337 127.716ZM612.817 132V134.856H601.925V132H612.817ZM623.529 137.068C623.529 136.265 623.296 135.64 622.829 135.192C622.381 134.744 621.784 134.52 621.037 134.52C620.347 134.52 619.74 134.697 619.217 135.052C618.695 135.407 618.312 135.995 618.069 136.816L614.793 135.808C615.111 134.576 615.801 133.587 616.865 132.84C617.948 132.093 619.395 131.72 621.205 131.72C622.437 131.72 623.511 131.916 624.425 132.308C625.34 132.681 626.049 133.251 626.553 134.016C627.076 134.781 627.337 135.743 627.337 136.9V142.584C627.337 143.293 627.673 143.648 628.345 143.648C628.663 143.648 628.961 143.601 629.241 143.508L629.017 145.888C628.532 146.131 627.925 146.252 627.197 146.252C626.544 146.252 625.956 146.14 625.433 145.916C624.911 145.692 624.5 145.356 624.201 144.908C623.903 144.441 623.753 143.863 623.753 143.172V143.06L624.425 142.948C624.313 143.657 624.005 144.264 623.501 144.768C622.997 145.253 622.381 145.627 621.653 145.888C620.944 146.149 620.207 146.28 619.441 146.28C618.489 146.28 617.668 146.14 616.977 145.86C616.287 145.561 615.755 145.132 615.381 144.572C615.008 144.012 614.821 143.321 614.821 142.5C614.821 141.455 615.157 140.605 615.829 139.952C616.501 139.28 617.463 138.823 618.713 138.58L623.977 137.516L623.949 139.896L620.589 140.568C619.955 140.699 619.469 140.876 619.133 141.1C618.816 141.305 618.657 141.651 618.657 142.136C618.657 142.603 618.825 142.957 619.161 143.2C619.516 143.443 619.936 143.564 620.421 143.564C620.813 143.564 621.196 143.517 621.569 143.424C621.943 143.331 622.279 143.181 622.577 142.976C622.876 142.771 623.109 142.491 623.277 142.136C623.445 141.781 623.529 141.352 623.529 140.848V137.068ZM631.627 146V132H634.959L635.211 134.744C635.585 133.773 636.126 133.027 636.835 132.504C637.563 131.981 638.469 131.72 639.551 131.72C639.869 131.72 640.158 131.748 640.419 131.804C640.681 131.86 640.895 131.935 641.063 132.028L640.615 135.248C640.429 135.173 640.195 135.117 639.915 135.08C639.654 135.043 639.309 135.024 638.879 135.024C638.319 135.024 637.778 135.164 637.255 135.444C636.733 135.705 636.303 136.116 635.967 136.676C635.631 137.217 635.463 137.908 635.463 138.748V146H631.627ZM656.6 132L650.944 146.868C650.496 148.137 649.992 149.145 649.432 149.892C648.89 150.639 648.256 151.18 647.528 151.516C646.818 151.852 645.969 152.02 644.98 152.02C644.252 152.02 643.58 151.927 642.964 151.74C642.366 151.572 641.844 151.348 641.396 151.068L642.208 148.296C642.562 148.576 642.936 148.772 643.328 148.884C643.72 149.015 644.168 149.08 644.672 149.08C645.194 149.08 645.642 148.968 646.016 148.744C646.408 148.52 646.734 148.072 646.996 147.4L647.472 146.196L645.932 142.556L641.648 132H645.904L648.564 140.4L649.292 143.2L650.16 140.232L652.708 132H656.6ZM517.98 158.868V174.688C517.98 175.341 518.092 175.799 518.316 176.06C518.54 176.321 518.913 176.452 519.436 176.452C519.753 176.452 520.014 176.433 520.22 176.396C520.425 176.34 520.686 176.265 521.004 176.172L520.668 178.692C520.35 178.879 519.949 179.019 519.464 179.112C518.997 179.224 518.53 179.28 518.064 179.28C516.701 179.28 515.702 178.953 515.068 178.3C514.452 177.628 514.144 176.564 514.144 175.108V158.868H517.98ZM529.525 164.72C530.944 164.72 532.185 165.009 533.249 165.588C534.332 166.167 535.172 166.997 535.769 168.08C536.385 169.163 536.693 170.469 536.693 172C536.693 173.512 536.385 174.819 535.769 175.92C535.172 177.003 534.332 177.833 533.249 178.412C532.185 178.991 530.944 179.28 529.525 179.28C528.125 179.28 526.884 178.991 525.801 178.412C524.718 177.833 523.869 177.003 523.253 175.92C522.656 174.819 522.357 173.512 522.357 172C522.357 170.469 522.656 169.163 523.253 168.08C523.869 166.997 524.718 166.167 525.801 165.588C526.884 165.009 528.125 164.72 529.525 164.72ZM529.525 167.576C528.816 167.576 528.209 167.744 527.705 168.08C527.22 168.397 526.846 168.883 526.585 169.536C526.324 170.189 526.193 171.011 526.193 172C526.193 172.989 526.324 173.811 526.585 174.464C526.846 175.117 527.22 175.612 527.705 175.948C528.209 176.265 528.816 176.424 529.525 176.424C530.216 176.424 530.804 176.265 531.289 175.948C531.793 175.612 532.176 175.117 532.437 174.464C532.698 173.811 532.829 172.989 532.829 172C532.829 171.011 532.698 170.189 532.437 169.536C532.176 168.883 531.793 168.397 531.289 168.08C530.804 167.744 530.216 167.576 529.525 167.576ZM546.259 164.72C547.509 164.72 548.564 164.907 549.423 165.28C550.3 165.635 551 166.129 551.523 166.764C552.064 167.38 552.447 168.071 552.671 168.836L549.087 170.124C548.9 169.284 548.583 168.649 548.135 168.22C547.687 167.791 547.08 167.576 546.315 167.576C545.605 167.576 544.999 167.744 544.495 168.08C543.991 168.397 543.608 168.892 543.347 169.564C543.085 170.217 542.955 171.039 542.955 172.028C542.955 173.017 543.085 173.839 543.347 174.492C543.627 175.145 544.019 175.631 544.523 175.948C545.045 176.265 545.652 176.424 546.343 176.424C546.903 176.424 547.379 176.331 547.771 176.144C548.163 175.939 548.48 175.649 548.723 175.276C548.984 174.903 549.161 174.455 549.255 173.932L552.727 175.052C552.521 175.892 552.139 176.629 551.579 177.264C551.019 177.899 550.3 178.393 549.423 178.748C548.545 179.103 547.528 179.28 546.371 179.28C544.933 179.28 543.664 178.991 542.563 178.412C541.461 177.833 540.612 177.003 540.015 175.92C539.417 174.837 539.119 173.531 539.119 172C539.119 170.469 539.417 169.163 540.015 168.08C540.612 166.997 541.452 166.167 542.535 165.588C543.617 165.009 544.859 164.72 546.259 164.72ZM569.959 165L563.491 171.748L562.735 172.112L558.535 176.62L558.479 172.532L565.591 165H569.959ZM559.543 158.868V179H555.707V158.868H559.543ZM564.023 169.452L570.295 179H565.955L561.391 171.692L564.023 169.452ZM581.213 169.928V173.232H571.329V169.928H581.213ZM587.526 162.984C586.723 162.984 586.126 162.816 585.734 162.48C585.342 162.125 585.146 161.612 585.146 160.94C585.146 160.249 585.342 159.736 585.734 159.4C586.126 159.045 586.723 158.868 587.526 158.868C588.329 158.868 588.926 159.045 589.318 159.4C589.71 159.736 589.906 160.249 589.906 160.94C589.906 161.612 589.71 162.125 589.318 162.48C588.926 162.816 588.329 162.984 587.526 162.984ZM589.43 165V179H585.594V165H589.43ZM593.496 179V165H596.94L597.164 169.2L596.688 168.752C596.912 167.837 597.267 167.091 597.752 166.512C598.238 165.915 598.826 165.467 599.516 165.168C600.226 164.869 601 164.72 601.84 164.72C602.811 164.72 603.67 164.907 604.416 165.28C605.182 165.653 605.779 166.223 606.208 166.988C606.656 167.735 606.88 168.677 606.88 169.816V179H603.044V170.908C603.044 169.713 602.811 168.892 602.344 168.444C601.878 167.977 601.271 167.744 600.524 167.744C600.002 167.744 599.488 167.875 598.984 168.136C598.499 168.379 598.098 168.78 597.78 169.34C597.482 169.9 597.332 170.647 597.332 171.58V179H593.496Z" fill="#36393F"/>
<g filter="url(#filter1_d_692_3151)">
<path d="M516 44.7936L544.299 73.214C553.308 82.262 567.908 82.262 576.905 73.214L605.204 44.7936L560.602 0L516 44.7936Z" fill="#5695FB"/>
</g>
<path d="M189.864 374V362.296C189.864 361.867 189.864 361.428 189.864 360.98C189.882 360.513 189.901 360.037 189.92 359.552C189.285 360.131 188.576 360.635 187.792 361.064C187.008 361.493 186.205 361.792 185.384 361.96L184.88 358.712C185.309 358.675 185.785 358.553 186.308 358.348C186.849 358.124 187.39 357.863 187.932 357.564C188.492 357.247 188.996 356.92 189.444 356.584C189.91 356.229 190.265 355.875 190.508 355.52H193.644V374H189.864ZM204.9 374.28C202.529 374.28 200.7 373.477 199.412 371.872C198.143 370.267 197.508 367.896 197.508 364.76C197.508 361.624 198.143 359.253 199.412 357.648C200.7 356.043 202.529 355.24 204.9 355.24C207.271 355.24 209.091 356.043 210.36 357.648C211.648 359.253 212.292 361.624 212.292 364.76C212.292 367.896 211.648 370.267 210.36 371.872C209.091 373.477 207.271 374.28 204.9 374.28ZM204.9 371.172C205.703 371.172 206.356 370.948 206.86 370.5C207.383 370.033 207.775 369.333 208.036 368.4C208.297 367.448 208.428 366.235 208.428 364.76C208.428 363.285 208.297 362.081 208.036 361.148C207.775 360.196 207.383 359.496 206.86 359.048C206.356 358.581 205.703 358.348 204.9 358.348C204.097 358.348 203.435 358.581 202.912 359.048C202.389 359.496 201.997 360.196 201.736 361.148C201.493 362.081 201.372 363.285 201.372 364.76C201.372 366.235 201.493 367.448 201.736 368.4C201.997 369.333 202.389 370.033 202.912 370.5C203.435 370.948 204.097 371.172 204.9 371.172ZM222.701 374.28C220.33 374.28 218.501 373.477 217.213 371.872C215.944 370.267 215.309 367.896 215.309 364.76C215.309 361.624 215.944 359.253 217.213 357.648C218.501 356.043 220.33 355.24 222.701 355.24C225.072 355.24 226.892 356.043 228.161 357.648C229.449 359.253 230.093 361.624 230.093 364.76C230.093 367.896 229.449 370.267 228.161 371.872C226.892 373.477 225.072 374.28 222.701 374.28ZM222.701 371.172C223.504 371.172 224.157 370.948 224.661 370.5C225.184 370.033 225.576 369.333 225.837 368.4C226.098 367.448 226.229 366.235 226.229 364.76C226.229 363.285 226.098 362.081 225.837 361.148C225.576 360.196 225.184 359.496 224.661 359.048C224.157 358.581 223.504 358.348 222.701 358.348C221.898 358.348 221.236 358.581 220.713 359.048C220.19 359.496 219.798 360.196 219.537 361.148C219.294 362.081 219.173 363.285 219.173 364.76C219.173 366.235 219.294 367.448 219.537 368.4C219.798 369.333 220.19 370.033 220.713 370.5C221.236 370.948 221.898 371.172 222.701 371.172ZM236.554 374L249.014 355.52H252.094L239.634 374H236.554ZM237.478 355.24C238.486 355.24 239.354 355.455 240.082 355.884C240.828 356.313 241.398 356.92 241.79 357.704C242.2 358.488 242.406 359.403 242.406 360.448C242.406 361.493 242.2 362.408 241.79 363.192C241.398 363.957 240.828 364.564 240.082 365.012C239.354 365.441 238.486 365.656 237.478 365.656C236.488 365.656 235.62 365.441 234.874 365.012C234.127 364.564 233.548 363.957 233.138 363.192C232.746 362.408 232.55 361.493 232.55 360.448C232.55 359.403 232.746 358.488 233.138 357.704C233.548 356.92 234.127 356.313 234.874 355.884C235.62 355.455 236.488 355.24 237.478 355.24ZM237.478 357.9C237.067 357.9 236.712 358.003 236.414 358.208C236.115 358.395 235.891 358.684 235.742 359.076C235.592 359.449 235.518 359.907 235.518 360.448C235.518 360.971 235.592 361.428 235.742 361.82C235.891 362.193 236.115 362.483 236.414 362.688C236.712 362.875 237.067 362.968 237.478 362.968C237.907 362.968 238.262 362.875 238.542 362.688C238.84 362.483 239.064 362.193 239.214 361.82C239.363 361.428 239.438 360.971 239.438 360.448C239.438 359.907 239.363 359.449 239.214 359.076C239.064 358.684 238.84 358.395 238.542 358.208C238.262 358.003 237.907 357.9 237.478 357.9ZM251.142 363.864C252.131 363.864 252.99 364.088 253.718 364.536C254.464 364.965 255.043 365.572 255.454 366.356C255.864 367.121 256.07 368.027 256.07 369.072C256.07 370.117 255.864 371.032 255.454 371.816C255.043 372.6 254.464 373.207 253.718 373.636C252.99 374.065 252.131 374.28 251.142 374.28C250.152 374.28 249.284 374.065 248.538 373.636C247.791 373.207 247.212 372.6 246.802 371.816C246.41 371.032 246.214 370.117 246.214 369.072C246.214 368.027 246.41 367.121 246.802 366.356C247.212 365.572 247.791 364.965 248.538 364.536C249.284 364.088 250.152 363.864 251.142 363.864ZM251.142 366.552C250.712 366.552 250.348 366.655 250.05 366.86C249.77 367.047 249.555 367.327 249.406 367.7C249.256 368.073 249.182 368.531 249.182 369.072C249.182 369.595 249.256 370.052 249.406 370.444C249.555 370.836 249.77 371.135 250.05 371.34C250.348 371.527 250.712 371.62 251.142 371.62C251.571 371.62 251.926 371.527 252.206 371.34C252.504 371.135 252.728 370.836 252.878 370.444C253.027 370.052 253.102 369.595 253.102 369.072C253.102 368.531 253.027 368.073 252.878 367.7C252.728 367.327 252.504 367.047 252.206 366.86C251.926 366.655 251.571 366.552 251.142 366.552ZM273.958 359.72C275.209 359.72 276.263 359.907 277.122 360.28C277.999 360.635 278.699 361.129 279.222 361.764C279.763 362.38 280.146 363.071 280.37 363.836L276.786 365.124C276.599 364.284 276.282 363.649 275.834 363.22C275.386 362.791 274.779 362.576 274.014 362.576C273.305 362.576 272.698 362.744 272.194 363.08C271.69 363.397 271.307 363.892 271.046 364.564C270.785 365.217 270.654 366.039 270.654 367.028C270.654 368.017 270.785 368.839 271.046 369.492C271.326 370.145 271.718 370.631 272.222 370.948C272.745 371.265 273.351 371.424 274.042 371.424C274.602 371.424 275.078 371.331 275.47 371.144C275.862 370.939 276.179 370.649 276.422 370.276C276.683 369.903 276.861 369.455 276.954 368.932L280.426 370.052C280.221 370.892 279.838 371.629 279.278 372.264C278.718 372.899 277.999 373.393 277.122 373.748C276.245 374.103 275.227 374.28 274.07 374.28C272.633 374.28 271.363 373.991 270.262 373.412C269.161 372.833 268.311 372.003 267.714 370.92C267.117 369.837 266.818 368.531 266.818 367C266.818 365.469 267.117 364.163 267.714 363.08C268.311 361.997 269.151 361.167 270.234 360.588C271.317 360.009 272.558 359.72 273.958 359.72ZM287.187 353.868V369.688C287.187 370.341 287.299 370.799 287.523 371.06C287.747 371.321 288.12 371.452 288.643 371.452C288.96 371.452 289.221 371.433 289.427 371.396C289.632 371.34 289.893 371.265 290.211 371.172L289.875 373.692C289.557 373.879 289.156 374.019 288.671 374.112C288.204 374.224 287.737 374.28 287.271 374.28C285.908 374.28 284.909 373.953 284.275 373.3C283.659 372.628 283.351 371.564 283.351 370.108V353.868H287.187ZM298.732 359.72C300.151 359.72 301.392 360.009 302.456 360.588C303.539 361.167 304.379 361.997 304.976 363.08C305.592 364.163 305.9 365.469 305.9 367C305.9 368.512 305.592 369.819 304.976 370.92C304.379 372.003 303.539 372.833 302.456 373.412C301.392 373.991 300.151 374.28 298.732 374.28C297.332 374.28 296.091 373.991 295.008 373.412C293.925 372.833 293.076 372.003 292.46 370.92C291.863 369.819 291.564 368.512 291.564 367C291.564 365.469 291.863 364.163 292.46 363.08C293.076 361.997 293.925 361.167 295.008 360.588C296.091 360.009 297.332 359.72 298.732 359.72ZM298.732 362.576C298.023 362.576 297.416 362.744 296.912 363.08C296.427 363.397 296.053 363.883 295.792 364.536C295.531 365.189 295.4 366.011 295.4 367C295.4 367.989 295.531 368.811 295.792 369.464C296.053 370.117 296.427 370.612 296.912 370.948C297.416 371.265 298.023 371.424 298.732 371.424C299.423 371.424 300.011 371.265 300.496 370.948C301 370.612 301.383 370.117 301.644 369.464C301.905 368.811 302.036 367.989 302.036 367C302.036 366.011 301.905 365.189 301.644 364.536C301.383 363.883 301 363.397 300.496 363.08C300.011 362.744 299.423 362.576 298.732 362.576ZM313.982 374.28C313.048 374.28 312.208 374.112 311.462 373.776C310.715 373.44 310.118 372.908 309.67 372.18C309.24 371.433 309.026 370.472 309.026 369.296V360H312.862V368.372C312.862 369.455 313.086 370.211 313.534 370.64C313.982 371.051 314.626 371.256 315.466 371.256C315.858 371.256 316.24 371.191 316.614 371.06C316.987 370.911 317.314 370.687 317.594 370.388C317.892 370.089 318.126 369.707 318.294 369.24C318.462 368.755 318.546 368.185 318.546 367.532V360H322.382V374H318.966L318.826 371.564C318.359 372.497 317.715 373.188 316.894 373.636C316.091 374.065 315.12 374.28 313.982 374.28ZM331.71 374.28C330.553 374.28 329.517 373.991 328.602 373.412C327.706 372.833 326.997 372.003 326.474 370.92C325.97 369.837 325.718 368.54 325.718 367.028C325.718 365.479 325.989 364.163 326.53 363.08C327.072 361.979 327.8 361.148 328.714 360.588C329.648 360.009 330.693 359.72 331.85 359.72C333.082 359.72 334.1 360.075 334.902 360.784C335.705 361.493 336.228 362.408 336.47 363.528L336.106 363.976V353.868H339.942V374H336.498L336.246 369.744L336.694 369.968C336.582 370.845 336.293 371.611 335.826 372.264C335.36 372.899 334.772 373.393 334.062 373.748C333.353 374.103 332.569 374.28 331.71 374.28ZM332.83 371.34C333.502 371.34 334.081 371.172 334.566 370.836C335.052 370.481 335.425 369.968 335.686 369.296C335.966 368.624 336.106 367.821 336.106 366.888C336.106 365.992 335.976 365.236 335.714 364.62C335.453 363.985 335.08 363.5 334.594 363.164C334.109 362.828 333.54 362.66 332.886 362.66C331.841 362.66 331.02 363.033 330.422 363.78C329.844 364.508 329.554 365.581 329.554 367C329.554 368.419 329.844 369.501 330.422 370.248C331.001 370.976 331.804 371.34 332.83 371.34ZM352.532 374V360H355.976L356.2 364.2L355.724 363.752C355.948 362.837 356.302 362.091 356.788 361.512C357.273 360.915 357.861 360.467 358.552 360.168C359.261 359.869 360.036 359.72 360.876 359.72C361.846 359.72 362.705 359.907 363.452 360.28C364.217 360.653 364.814 361.223 365.244 361.988C365.692 362.735 365.916 363.677 365.916 364.816V374H362.08V365.908C362.08 364.713 361.846 363.892 361.38 363.444C360.913 362.977 360.306 362.744 359.56 362.744C359.037 362.744 358.524 362.875 358.02 363.136C357.534 363.379 357.133 363.78 356.816 364.34C356.517 364.9 356.368 365.647 356.368 366.58V374H352.532ZM377.848 365.068C377.848 364.265 377.614 363.64 377.148 363.192C376.7 362.744 376.102 362.52 375.356 362.52C374.665 362.52 374.058 362.697 373.536 363.052C373.013 363.407 372.63 363.995 372.388 364.816L369.112 363.808C369.429 362.576 370.12 361.587 371.184 360.84C372.266 360.093 373.713 359.72 375.524 359.72C376.756 359.72 377.829 359.916 378.744 360.308C379.658 360.681 380.368 361.251 380.872 362.016C381.394 362.781 381.656 363.743 381.656 364.9V370.584C381.656 371.293 381.992 371.648 382.664 371.648C382.981 371.648 383.28 371.601 383.56 371.508L383.336 373.888C382.85 374.131 382.244 374.252 381.516 374.252C380.862 374.252 380.274 374.14 379.752 373.916C379.229 373.692 378.818 373.356 378.52 372.908C378.221 372.441 378.072 371.863 378.072 371.172V371.06L378.744 370.948C378.632 371.657 378.324 372.264 377.82 372.768C377.316 373.253 376.7 373.627 375.972 373.888C375.262 374.149 374.525 374.28 373.76 374.28C372.808 374.28 371.986 374.14 371.296 373.86C370.605 373.561 370.073 373.132 369.7 372.572C369.326 372.012 369.14 371.321 369.14 370.5C369.14 369.455 369.476 368.605 370.148 367.952C370.82 367.28 371.781 366.823 373.032 366.58L378.296 365.516L378.268 367.896L374.908 368.568C374.273 368.699 373.788 368.876 373.452 369.1C373.134 369.305 372.976 369.651 372.976 370.136C372.976 370.603 373.144 370.957 373.48 371.2C373.834 371.443 374.254 371.564 374.74 371.564C375.132 371.564 375.514 371.517 375.888 371.424C376.261 371.331 376.597 371.181 376.896 370.976C377.194 370.771 377.428 370.491 377.596 370.136C377.764 369.781 377.848 369.352 377.848 368.848V365.068ZM390.355 355.716V369.436C390.355 370.108 390.523 370.603 390.859 370.92C391.213 371.219 391.689 371.368 392.287 371.368C392.772 371.368 393.183 371.303 393.519 371.172C393.873 371.023 394.191 370.827 394.471 370.584L395.087 373.132C394.639 373.487 394.079 373.767 393.407 373.972C392.735 374.177 392.025 374.28 391.279 374.28C390.345 374.28 389.515 374.14 388.787 373.86C388.077 373.58 387.517 373.132 387.107 372.516C386.715 371.9 386.519 371.079 386.519 370.052V356.78L390.355 355.716ZM394.835 360V362.856H383.943V360H394.835ZM399.362 357.984C398.559 357.984 397.962 357.816 397.57 357.48C397.178 357.125 396.982 356.612 396.982 355.94C396.982 355.249 397.178 354.736 397.57 354.4C397.962 354.045 398.559 353.868 399.362 353.868C400.165 353.868 400.762 354.045 401.154 354.4C401.546 354.736 401.742 355.249 401.742 355.94C401.742 356.612 401.546 357.125 401.154 357.48C400.762 357.816 400.165 357.984 399.362 357.984ZM401.266 360V374H397.43V360H401.266ZM414.516 360H418.492L413.172 374H408.748L403.428 360H407.544L410.988 371.06L414.516 360ZM426.95 374.28C425.475 374.28 424.187 373.991 423.086 373.412C422.003 372.833 421.163 372.003 420.566 370.92C419.968 369.837 419.67 368.531 419.67 367C419.67 365.469 419.968 364.163 420.566 363.08C421.163 361.997 421.994 361.167 423.058 360.588C424.14 360.009 425.372 359.72 426.754 359.72C428.172 359.72 429.376 360.009 430.366 360.588C431.355 361.148 432.111 361.923 432.634 362.912C433.156 363.883 433.418 364.993 433.418 366.244C433.418 366.617 433.408 366.972 433.39 367.308C433.371 367.644 433.343 367.943 433.306 368.204H422.133V365.544H431.626L429.778 366.216C429.778 365.04 429.507 364.135 428.966 363.5C428.443 362.865 427.696 362.548 426.726 362.548C426.016 362.548 425.4 362.716 424.878 363.052C424.374 363.388 423.991 363.892 423.73 364.564C423.468 365.217 423.338 366.048 423.338 367.056C423.338 368.045 423.478 368.867 423.758 369.52C424.056 370.155 424.467 370.631 424.99 370.948C425.531 371.265 426.175 371.424 426.922 371.424C427.743 371.424 428.406 371.265 428.91 370.948C429.414 370.631 429.806 370.192 430.086 369.632L433.138 370.808C432.839 371.536 432.382 372.161 431.766 372.684C431.168 373.207 430.45 373.608 429.61 373.888C428.788 374.149 427.902 374.28 426.95 374.28Z" fill="#36393F"/>
<g filter="url(#filter2_d_692_3151)">
<path d="M265 271.794L293.299 300.214C302.308 309.262 316.908 309.262 325.905 300.214L354.204 271.794L309.602 227L265 271.794Z" fill="#5695FB"/>
</g>
<path d="M691.959 362V350.296C691.959 349.867 691.959 349.428 691.959 348.98C691.978 348.513 691.997 348.037 692.015 347.552C691.381 348.131 690.671 348.635 689.887 349.064C689.103 349.493 688.301 349.792 687.479 349.96L686.975 346.712C687.405 346.675 687.881 346.553 688.403 346.348C688.945 346.124 689.486 345.863 690.027 345.564C690.587 345.247 691.091 344.92 691.539 344.584C692.006 344.229 692.361 343.875 692.603 343.52H695.739V362H691.959ZM706.996 362.28C704.625 362.28 702.796 361.477 701.508 359.872C700.238 358.267 699.604 355.896 699.604 352.76C699.604 349.624 700.238 347.253 701.508 345.648C702.796 344.043 704.625 343.24 706.996 343.24C709.366 343.24 711.186 344.043 712.456 345.648C713.744 347.253 714.388 349.624 714.388 352.76C714.388 355.896 713.744 358.267 712.456 359.872C711.186 361.477 709.366 362.28 706.996 362.28ZM706.996 359.172C707.798 359.172 708.452 358.948 708.956 358.5C709.478 358.033 709.87 357.333 710.132 356.4C710.393 355.448 710.524 354.235 710.524 352.76C710.524 351.285 710.393 350.081 710.132 349.148C709.87 348.196 709.478 347.496 708.956 347.048C708.452 346.581 707.798 346.348 706.996 346.348C706.193 346.348 705.53 346.581 705.008 347.048C704.485 347.496 704.093 348.196 703.832 349.148C703.589 350.081 703.468 351.285 703.468 352.76C703.468 354.235 703.589 355.448 703.832 356.4C704.093 357.333 704.485 358.033 705.008 358.5C705.53 358.948 706.193 359.172 706.996 359.172ZM724.797 362.28C722.426 362.28 720.597 361.477 719.309 359.872C718.039 358.267 717.405 355.896 717.405 352.76C717.405 349.624 718.039 347.253 719.309 345.648C720.597 344.043 722.426 343.24 724.797 343.24C727.167 343.24 728.987 344.043 730.257 345.648C731.545 347.253 732.189 349.624 732.189 352.76C732.189 355.896 731.545 358.267 730.257 359.872C728.987 361.477 727.167 362.28 724.797 362.28ZM724.797 359.172C725.599 359.172 726.253 358.948 726.757 358.5C727.279 358.033 727.671 357.333 727.933 356.4C728.194 355.448 728.325 354.235 728.325 352.76C728.325 351.285 728.194 350.081 727.933 349.148C727.671 348.196 727.279 347.496 726.757 347.048C726.253 346.581 725.599 346.348 724.797 346.348C723.994 346.348 723.331 346.581 722.809 347.048C722.286 347.496 721.894 348.196 721.633 349.148C721.39 350.081 721.269 351.285 721.269 352.76C721.269 354.235 721.39 355.448 721.633 356.4C721.894 357.333 722.286 358.033 722.809 358.5C723.331 358.948 723.994 359.172 724.797 359.172ZM738.649 362L751.109 343.52H754.189L741.729 362H738.649ZM739.573 343.24C740.581 343.24 741.449 343.455 742.177 343.884C742.924 344.313 743.493 344.92 743.885 345.704C744.296 346.488 744.501 347.403 744.501 348.448C744.501 349.493 744.296 350.408 743.885 351.192C743.493 351.957 742.924 352.564 742.177 353.012C741.449 353.441 740.581 353.656 739.573 353.656C738.584 353.656 737.716 353.441 736.969 353.012C736.223 352.564 735.644 351.957 735.233 351.192C734.841 350.408 734.645 349.493 734.645 348.448C734.645 347.403 734.841 346.488 735.233 345.704C735.644 344.92 736.223 344.313 736.969 343.884C737.716 343.455 738.584 343.24 739.573 343.24ZM739.573 345.9C739.163 345.9 738.808 346.003 738.509 346.208C738.211 346.395 737.987 346.684 737.837 347.076C737.688 347.449 737.613 347.907 737.613 348.448C737.613 348.971 737.688 349.428 737.837 349.82C737.987 350.193 738.211 350.483 738.509 350.688C738.808 350.875 739.163 350.968 739.573 350.968C740.003 350.968 740.357 350.875 740.637 350.688C740.936 350.483 741.16 350.193 741.309 349.82C741.459 349.428 741.533 348.971 741.533 348.448C741.533 347.907 741.459 347.449 741.309 347.076C741.16 346.684 740.936 346.395 740.637 346.208C740.357 346.003 740.003 345.9 739.573 345.9ZM753.237 351.864C754.227 351.864 755.085 352.088 755.813 352.536C756.56 352.965 757.139 353.572 757.549 354.356C757.96 355.121 758.165 356.027 758.165 357.072C758.165 358.117 757.96 359.032 757.549 359.816C757.139 360.6 756.56 361.207 755.813 361.636C755.085 362.065 754.227 362.28 753.237 362.28C752.248 362.28 751.38 362.065 750.633 361.636C749.887 361.207 749.308 360.6 748.897 359.816C748.505 359.032 748.309 358.117 748.309 357.072C748.309 356.027 748.505 355.121 748.897 354.356C749.308 353.572 749.887 352.965 750.633 352.536C751.38 352.088 752.248 351.864 753.237 351.864ZM753.237 354.552C752.808 354.552 752.444 354.655 752.145 354.86C751.865 355.047 751.651 355.327 751.501 355.7C751.352 356.073 751.277 356.531 751.277 357.072C751.277 357.595 751.352 358.052 751.501 358.444C751.651 358.836 751.865 359.135 752.145 359.34C752.444 359.527 752.808 359.62 753.237 359.62C753.667 359.62 754.021 359.527 754.301 359.34C754.6 359.135 754.824 358.836 754.973 358.444C755.123 358.052 755.197 357.595 755.197 357.072C755.197 356.531 755.123 356.073 754.973 355.7C754.824 355.327 754.6 355.047 754.301 354.86C754.021 354.655 753.667 354.552 753.237 354.552ZM776.082 347.72C777.5 347.72 778.742 348.009 779.806 348.588C780.888 349.167 781.728 349.997 782.326 351.08C782.942 352.163 783.25 353.469 783.25 355C783.25 356.512 782.942 357.819 782.326 358.92C781.728 360.003 780.888 360.833 779.806 361.412C778.742 361.991 777.5 362.28 776.082 362.28C774.682 362.28 773.44 361.991 772.358 361.412C771.275 360.833 770.426 360.003 769.81 358.92C769.212 357.819 768.914 356.512 768.914 355C768.914 353.469 769.212 352.163 769.81 351.08C770.426 349.997 771.275 349.167 772.358 348.588C773.44 348.009 774.682 347.72 776.082 347.72ZM776.082 350.576C775.372 350.576 774.766 350.744 774.262 351.08C773.776 351.397 773.403 351.883 773.142 352.536C772.88 353.189 772.75 354.011 772.75 355C772.75 355.989 772.88 356.811 773.142 357.464C773.403 358.117 773.776 358.612 774.262 358.948C774.766 359.265 775.372 359.424 776.082 359.424C776.772 359.424 777.36 359.265 777.846 358.948C778.35 358.612 778.732 358.117 778.994 357.464C779.255 356.811 779.386 355.989 779.386 355C779.386 354.011 779.255 353.189 778.994 352.536C778.732 351.883 778.35 351.397 777.846 351.08C777.36 350.744 776.772 350.576 776.082 350.576ZM786.459 367.88V348H789.903L790.155 352.452L789.679 351.948C789.847 351.127 790.155 350.399 790.603 349.764C791.07 349.129 791.658 348.635 792.367 348.28C793.077 347.907 793.87 347.72 794.747 347.72C795.886 347.72 796.903 348.009 797.799 348.588C798.695 349.167 799.395 349.997 799.899 351.08C800.422 352.144 800.683 353.441 800.683 354.972C800.683 356.503 800.422 357.819 799.899 358.92C799.377 360.003 798.658 360.833 797.743 361.412C796.847 361.991 795.821 362.28 794.663 362.28C793.431 362.28 792.405 361.935 791.583 361.244C790.781 360.553 790.23 359.685 789.931 358.64L790.295 358.052V367.88H786.459ZM793.543 359.34C794.57 359.34 795.373 358.976 795.951 358.248C796.549 357.501 796.847 356.419 796.847 355C796.847 353.581 796.558 352.508 795.979 351.78C795.419 351.033 794.626 350.66 793.599 350.66C792.946 350.66 792.367 350.837 791.863 351.192C791.378 351.528 790.995 352.023 790.715 352.676C790.435 353.311 790.295 354.085 790.295 355C790.295 355.877 790.426 356.652 790.687 357.324C790.949 357.977 791.322 358.481 791.807 358.836C792.311 359.172 792.89 359.34 793.543 359.34ZM810.51 362.28C809.035 362.28 807.747 361.991 806.646 361.412C805.563 360.833 804.723 360.003 804.126 358.92C803.529 357.837 803.23 356.531 803.23 355C803.23 353.469 803.529 352.163 804.126 351.08C804.723 349.997 805.554 349.167 806.618 348.588C807.701 348.009 808.933 347.72 810.314 347.72C811.733 347.72 812.937 348.009 813.926 348.588C814.915 349.148 815.671 349.923 816.194 350.912C816.717 351.883 816.978 352.993 816.978 354.244C816.978 354.617 816.969 354.972 816.95 355.308C816.931 355.644 816.903 355.943 816.866 356.204H805.694V353.544H815.186L813.338 354.216C813.338 353.04 813.067 352.135 812.526 351.5C812.003 350.865 811.257 350.548 810.286 350.548C809.577 350.548 808.961 350.716 808.438 351.052C807.934 351.388 807.551 351.892 807.29 352.564C807.029 353.217 806.898 354.048 806.898 355.056C806.898 356.045 807.038 356.867 807.318 357.52C807.617 358.155 808.027 358.631 808.55 358.948C809.091 359.265 809.735 359.424 810.482 359.424C811.303 359.424 811.966 359.265 812.47 358.948C812.974 358.631 813.366 358.192 813.646 357.632L816.698 358.808C816.399 359.536 815.942 360.161 815.326 360.684C814.729 361.207 814.01 361.608 813.17 361.888C812.349 362.149 811.462 362.28 810.51 362.28ZM820.229 362V348H823.673L823.897 352.2L823.421 351.752C823.645 350.837 824 350.091 824.485 349.512C824.97 348.915 825.558 348.467 826.249 348.168C826.958 347.869 827.733 347.72 828.573 347.72C829.544 347.72 830.402 347.907 831.149 348.28C831.914 348.653 832.512 349.223 832.941 349.988C833.389 350.735 833.613 351.677 833.613 352.816V362H829.777V353.908C829.777 352.713 829.544 351.892 829.077 351.444C828.61 350.977 828.004 350.744 827.257 350.744C826.734 350.744 826.221 350.875 825.717 351.136C825.232 351.379 824.83 351.78 824.513 352.34C824.214 352.9 824.065 353.647 824.065 354.58V362H820.229ZM851.723 362.28C850.305 362.28 849.007 362.028 847.831 361.524C846.674 361.02 845.731 360.311 845.003 359.396L847.215 357.156C847.663 357.828 848.261 358.379 849.007 358.808C849.754 359.237 850.641 359.452 851.667 359.452C852.395 359.452 852.974 359.349 853.403 359.144C853.851 358.92 854.075 358.575 854.075 358.108C854.075 357.809 853.973 357.557 853.767 357.352C853.562 357.128 853.151 356.951 852.535 356.82L850.071 356.316C848.447 355.98 847.29 355.476 846.599 354.804C845.927 354.113 845.591 353.227 845.591 352.144C845.591 351.379 845.815 350.66 846.263 349.988C846.73 349.316 847.421 348.775 848.335 348.364C849.25 347.935 850.389 347.72 851.751 347.72C853.151 347.72 854.365 347.944 855.391 348.392C856.437 348.821 857.258 349.465 857.855 350.324L855.559 352.564C855.149 351.911 854.607 351.416 853.935 351.08C853.282 350.725 852.591 350.548 851.863 350.548C851.341 350.548 850.893 350.604 850.519 350.716C850.146 350.828 849.866 350.987 849.679 351.192C849.493 351.379 849.399 351.621 849.399 351.92C849.399 352.219 849.53 352.48 849.791 352.704C850.053 352.909 850.529 353.087 851.219 353.236L854.075 353.824C855.457 354.104 856.446 354.58 857.043 355.252C857.641 355.905 857.939 356.699 857.939 357.632C857.939 358.528 857.697 359.331 857.211 360.04C856.745 360.731 856.045 361.281 855.111 361.692C854.197 362.084 853.067 362.28 851.723 362.28ZM867.328 347.72C868.746 347.72 869.988 348.009 871.052 348.588C872.134 349.167 872.974 349.997 873.572 351.08C874.188 352.163 874.496 353.469 874.496 355C874.496 356.512 874.188 357.819 873.572 358.92C872.974 360.003 872.134 360.833 871.052 361.412C869.988 361.991 868.746 362.28 867.328 362.28C865.928 362.28 864.686 361.991 863.604 361.412C862.521 360.833 861.672 360.003 861.056 358.92C860.458 357.819 860.16 356.512 860.16 355C860.16 353.469 860.458 352.163 861.056 351.08C861.672 349.997 862.521 349.167 863.604 348.588C864.686 348.009 865.928 347.72 867.328 347.72ZM867.328 350.576C866.618 350.576 866.012 350.744 865.508 351.08C865.022 351.397 864.649 351.883 864.388 352.536C864.126 353.189 863.996 354.011 863.996 355C863.996 355.989 864.126 356.811 864.388 357.464C864.649 358.117 865.022 358.612 865.508 358.948C866.012 359.265 866.618 359.424 867.328 359.424C868.018 359.424 868.606 359.265 869.092 358.948C869.596 358.612 869.978 358.117 870.24 357.464C870.501 356.811 870.632 355.989 870.632 355C870.632 354.011 870.501 353.189 870.24 352.536C869.978 351.883 869.596 351.397 869.092 351.08C868.606 350.744 868.018 350.576 867.328 350.576ZM882.577 362.28C881.644 362.28 880.804 362.112 880.057 361.776C879.311 361.44 878.713 360.908 878.265 360.18C877.836 359.433 877.621 358.472 877.621 357.296V348H881.457V356.372C881.457 357.455 881.681 358.211 882.129 358.64C882.577 359.051 883.221 359.256 884.061 359.256C884.453 359.256 884.836 359.191 885.209 359.06C885.583 358.911 885.909 358.687 886.189 358.388C886.488 358.089 886.721 357.707 886.889 357.24C887.057 356.755 887.141 356.185 887.141 355.532V348H890.977V362H887.561L887.421 359.564C886.955 360.497 886.311 361.188 885.489 361.636C884.687 362.065 883.716 362.28 882.577 362.28ZM895.014 362V348H898.346L898.598 350.744C898.971 349.773 899.513 349.027 900.222 348.504C900.95 347.981 901.855 347.72 902.938 347.72C903.255 347.72 903.545 347.748 903.806 347.804C904.067 347.86 904.282 347.935 904.45 348.028L904.002 351.248C903.815 351.173 903.582 351.117 903.302 351.08C903.041 351.043 902.695 351.024 902.266 351.024C901.706 351.024 901.165 351.164 900.642 351.444C900.119 351.705 899.69 352.116 899.354 352.676C899.018 353.217 898.85 353.908 898.85 354.748V362H895.014ZM912.909 347.72C914.16 347.72 915.214 347.907 916.073 348.28C916.95 348.635 917.65 349.129 918.173 349.764C918.714 350.38 919.097 351.071 919.321 351.836L915.737 353.124C915.55 352.284 915.233 351.649 914.785 351.22C914.337 350.791 913.73 350.576 912.965 350.576C912.256 350.576 911.649 350.744 911.145 351.08C910.641 351.397 910.258 351.892 909.997 352.564C909.736 353.217 909.605 354.039 909.605 355.028C909.605 356.017 909.736 356.839 909.997 357.492C910.277 358.145 910.669 358.631 911.173 358.948C911.696 359.265 912.302 359.424 912.993 359.424C913.553 359.424 914.029 359.331 914.421 359.144C914.813 358.939 915.13 358.649 915.373 358.276C915.634 357.903 915.812 357.455 915.905 356.932L919.377 358.052C919.172 358.892 918.789 359.629 918.229 360.264C917.669 360.899 916.95 361.393 916.073 361.748C915.196 362.103 914.178 362.28 913.021 362.28C911.584 362.28 910.314 361.991 909.213 361.412C908.112 360.833 907.262 360.003 906.665 358.92C906.068 357.837 905.769 356.531 905.769 355C905.769 353.469 906.068 352.163 906.665 351.08C907.262 349.997 908.102 349.167 909.185 348.588C910.268 348.009 911.509 347.72 912.909 347.72ZM928.854 362.28C927.379 362.28 926.091 361.991 924.99 361.412C923.907 360.833 923.067 360.003 922.47 358.92C921.872 357.837 921.574 356.531 921.574 355C921.574 353.469 921.872 352.163 922.47 351.08C923.067 349.997 923.898 349.167 924.962 348.588C926.044 348.009 927.276 347.72 928.658 347.72C930.076 347.72 931.28 348.009 932.27 348.588C933.259 349.148 934.015 349.923 934.538 350.912C935.06 351.883 935.322 352.993 935.322 354.244C935.322 354.617 935.312 354.972 935.294 355.308C935.275 355.644 935.247 355.943 935.21 356.204H924.038V353.544H933.53L931.682 354.216C931.682 353.04 931.411 352.135 930.87 351.5C930.347 350.865 929.6 350.548 928.63 350.548C927.92 350.548 927.304 350.716 926.782 351.052C926.278 351.388 925.895 351.892 925.634 352.564C925.372 353.217 925.242 354.048 925.242 355.056C925.242 356.045 925.382 356.867 925.662 357.52C925.96 358.155 926.371 358.631 926.894 358.948C927.435 359.265 928.079 359.424 928.826 359.424C929.647 359.424 930.31 359.265 930.814 358.948C931.318 358.631 931.71 358.192 931.99 357.632L935.042 358.808C934.743 359.536 934.286 360.161 933.67 360.684C933.072 361.207 932.354 361.608 931.514 361.888C930.692 362.149 929.806 362.28 928.854 362.28Z" fill="#36393F"/>
<g filter="url(#filter3_d_692_3151)">
<path d="M767 260.794L795.299 289.214C804.308 298.262 818.908 298.262 827.905 289.214L856.204 260.794L811.602 216L767 260.794Z" fill="#5695FB"/>
</g>
<path d="M978.388 127.52C981.281 127.52 983.521 128.323 985.108 129.928C986.695 131.515 987.488 133.792 987.488 136.76C987.488 139.709 986.695 141.987 985.108 143.592C983.521 145.197 981.281 146 978.388 146H971.248V127.52H978.388ZM978.192 142.92C979.947 142.92 981.263 142.397 982.14 141.352C983.036 140.288 983.484 138.757 983.484 136.76C983.484 134.763 983.036 133.241 982.14 132.196C981.263 131.132 979.947 130.6 978.192 130.6H975.112V142.92H978.192ZM997.477 146.28C996.002 146.28 994.714 145.991 993.613 145.412C992.53 144.833 991.69 144.003 991.093 142.92C990.496 141.837 990.197 140.531 990.197 139C990.197 137.469 990.496 136.163 991.093 135.08C991.69 133.997 992.521 133.167 993.585 132.588C994.668 132.009 995.9 131.72 997.281 131.72C998.7 131.72 999.904 132.009 1000.89 132.588C1001.88 133.148 1002.64 133.923 1003.16 134.912C1003.68 135.883 1003.94 136.993 1003.94 138.244C1003.94 138.617 1003.94 138.972 1003.92 139.308C1003.9 139.644 1003.87 139.943 1003.83 140.204H992.661V137.544H1002.15L1000.3 138.216C1000.3 137.04 1000.03 136.135 999.493 135.5C998.97 134.865 998.224 134.548 997.253 134.548C996.544 134.548 995.928 134.716 995.405 135.052C994.901 135.388 994.518 135.892 994.257 136.564C993.996 137.217 993.865 138.048 993.865 139.056C993.865 140.045 994.005 140.867 994.285 141.52C994.584 142.155 994.994 142.631 995.517 142.948C996.058 143.265 996.702 143.424 997.449 143.424C998.27 143.424 998.933 143.265 999.437 142.948C999.941 142.631 1000.33 142.192 1000.61 141.632L1003.66 142.808C1003.37 143.536 1002.91 144.161 1002.29 144.684C1001.7 145.207 1000.98 145.608 1000.14 145.888C999.316 146.149 998.429 146.28 997.477 146.28ZM1007.2 151.88V132H1010.64L1010.89 136.452L1010.42 135.948C1010.58 135.127 1010.89 134.399 1011.34 133.764C1011.81 133.129 1012.39 132.635 1013.1 132.28C1013.81 131.907 1014.61 131.72 1015.48 131.72C1016.62 131.72 1017.64 132.009 1018.54 132.588C1019.43 133.167 1020.13 133.997 1020.64 135.08C1021.16 136.144 1021.42 137.441 1021.42 138.972C1021.42 140.503 1021.16 141.819 1020.64 142.92C1020.11 144.003 1019.39 144.833 1018.48 145.412C1017.58 145.991 1016.56 146.28 1015.4 146.28C1014.17 146.28 1013.14 145.935 1012.32 145.244C1011.52 144.553 1010.97 143.685 1010.67 142.64L1011.03 142.052V151.88H1007.2ZM1014.28 143.34C1015.31 143.34 1016.11 142.976 1016.69 142.248C1017.29 141.501 1017.58 140.419 1017.58 139C1017.58 137.581 1017.29 136.508 1016.72 135.78C1016.16 135.033 1015.36 134.66 1014.34 134.66C1013.68 134.66 1013.1 134.837 1012.6 135.192C1012.11 135.528 1011.73 136.023 1011.45 136.676C1011.17 137.311 1011.03 138.085 1011.03 139C1011.03 139.877 1011.16 140.652 1011.42 141.324C1011.69 141.977 1012.06 142.481 1012.54 142.836C1013.05 143.172 1013.63 143.34 1014.28 143.34ZM1028.53 125.868V141.688C1028.53 142.341 1028.64 142.799 1028.87 143.06C1029.09 143.321 1029.46 143.452 1029.99 143.452C1030.3 143.452 1030.57 143.433 1030.77 143.396C1030.98 143.34 1031.24 143.265 1031.55 143.172L1031.22 145.692C1030.9 145.879 1030.5 146.019 1030.01 146.112C1029.55 146.224 1029.08 146.28 1028.61 146.28C1027.25 146.28 1026.25 145.953 1025.62 145.3C1025 144.628 1024.69 143.564 1024.69 142.108V125.868H1028.53ZM1040.08 131.72C1041.49 131.72 1042.74 132.009 1043.8 132.588C1044.88 133.167 1045.72 133.997 1046.32 135.08C1046.94 136.163 1047.24 137.469 1047.24 139C1047.24 140.512 1046.94 141.819 1046.32 142.92C1045.72 144.003 1044.88 144.833 1043.8 145.412C1042.74 145.991 1041.49 146.28 1040.08 146.28C1038.68 146.28 1037.43 145.991 1036.35 145.412C1035.27 144.833 1034.42 144.003 1033.8 142.92C1033.21 141.819 1032.91 140.512 1032.91 139C1032.91 137.469 1033.21 136.163 1033.8 135.08C1034.42 133.997 1035.27 133.167 1036.35 132.588C1037.43 132.009 1038.68 131.72 1040.08 131.72ZM1040.08 134.576C1039.37 134.576 1038.76 134.744 1038.26 135.08C1037.77 135.397 1037.4 135.883 1037.14 136.536C1036.87 137.189 1036.74 138.011 1036.74 139C1036.74 139.989 1036.87 140.811 1037.14 141.464C1037.4 142.117 1037.77 142.612 1038.26 142.948C1038.76 143.265 1039.37 143.424 1040.08 143.424C1040.77 143.424 1041.35 143.265 1041.84 142.948C1042.34 142.612 1042.73 142.117 1042.99 141.464C1043.25 140.811 1043.38 139.989 1043.38 139C1043.38 138.011 1043.25 137.189 1042.99 136.536C1042.73 135.883 1042.34 135.397 1041.84 135.08C1041.35 134.744 1040.77 134.576 1040.08 134.576ZM1062.96 132L1057.3 146.868C1056.85 148.137 1056.35 149.145 1055.79 149.892C1055.25 150.639 1054.61 151.18 1053.89 151.516C1053.18 151.852 1052.33 152.02 1051.34 152.02C1050.61 152.02 1049.94 151.927 1049.32 151.74C1048.72 151.572 1048.2 151.348 1047.75 151.068L1048.57 148.296C1048.92 148.576 1049.29 148.772 1049.69 148.884C1050.08 149.015 1050.53 149.08 1051.03 149.08C1051.55 149.08 1052 148.968 1052.37 148.744C1052.77 148.52 1053.09 148.072 1053.35 147.4L1053.83 146.196L1052.29 142.556L1048.01 132H1052.26L1054.92 140.4L1055.65 143.2L1056.52 140.232L1059.07 132H1062.96ZM1079.48 146.28C1078.01 146.28 1076.72 145.991 1075.62 145.412C1074.53 144.833 1073.69 144.003 1073.1 142.92C1072.5 141.837 1072.2 140.531 1072.2 139C1072.2 137.469 1072.5 136.163 1073.1 135.08C1073.69 133.997 1074.52 133.167 1075.59 132.588C1076.67 132.009 1077.9 131.72 1079.28 131.72C1080.7 131.72 1081.91 132.009 1082.9 132.588C1083.89 133.148 1084.64 133.923 1085.16 134.912C1085.69 135.883 1085.95 136.993 1085.95 138.244C1085.95 138.617 1085.94 138.972 1085.92 139.308C1085.9 139.644 1085.87 139.943 1085.84 140.204H1074.66V137.544H1084.16L1082.31 138.216C1082.31 137.04 1082.04 136.135 1081.5 135.5C1080.97 134.865 1080.23 134.548 1079.26 134.548C1078.55 134.548 1077.93 134.716 1077.41 135.052C1076.9 135.388 1076.52 135.892 1076.26 136.564C1076 137.217 1075.87 138.048 1075.87 139.056C1075.87 140.045 1076.01 140.867 1076.29 141.52C1076.59 142.155 1077 142.631 1077.52 142.948C1078.06 143.265 1078.71 143.424 1079.45 143.424C1080.27 143.424 1080.94 143.265 1081.44 142.948C1081.94 142.631 1082.34 142.192 1082.62 141.632L1085.67 142.808C1085.37 143.536 1084.91 144.161 1084.3 144.684C1083.7 145.207 1082.98 145.608 1082.14 145.888C1081.32 146.149 1080.43 146.28 1079.48 146.28ZM1097.18 137.068C1097.18 136.265 1096.95 135.64 1096.48 135.192C1096.03 134.744 1095.43 134.52 1094.69 134.52C1094 134.52 1093.39 134.697 1092.87 135.052C1092.34 135.407 1091.96 135.995 1091.72 136.816L1088.44 135.808C1088.76 134.576 1089.45 133.587 1090.52 132.84C1091.6 132.093 1093.04 131.72 1094.86 131.72C1096.09 131.72 1097.16 131.916 1098.08 132.308C1098.99 132.681 1099.7 133.251 1100.2 134.016C1100.73 134.781 1100.99 135.743 1100.99 136.9V142.584C1100.99 143.293 1101.32 143.648 1102 143.648C1102.31 143.648 1102.61 143.601 1102.89 143.508L1102.67 145.888C1102.18 146.131 1101.58 146.252 1100.85 146.252C1100.19 146.252 1099.61 146.14 1099.08 145.916C1098.56 145.692 1098.15 145.356 1097.85 144.908C1097.55 144.441 1097.4 143.863 1097.4 143.172V143.06L1098.08 142.948C1097.96 143.657 1097.66 144.264 1097.15 144.768C1096.65 145.253 1096.03 145.627 1095.3 145.888C1094.59 146.149 1093.86 146.28 1093.09 146.28C1092.14 146.28 1091.32 146.14 1090.63 145.86C1089.94 145.561 1089.4 145.132 1089.03 144.572C1088.66 144.012 1088.47 143.321 1088.47 142.5C1088.47 141.455 1088.81 140.605 1089.48 139.952C1090.15 139.28 1091.11 138.823 1092.36 138.58L1097.63 137.516L1097.6 139.896L1094.24 140.568C1093.6 140.699 1093.12 140.876 1092.78 141.1C1092.47 141.305 1092.31 141.651 1092.31 142.136C1092.31 142.603 1092.48 142.957 1092.81 143.2C1093.17 143.443 1093.59 143.564 1094.07 143.564C1094.46 143.564 1094.85 143.517 1095.22 143.424C1095.59 143.331 1095.93 143.181 1096.23 142.976C1096.53 142.771 1096.76 142.491 1096.93 142.136C1097.1 141.781 1097.18 141.352 1097.18 140.848V137.068ZM1110.88 146.28C1109.46 146.28 1108.16 146.028 1106.99 145.524C1105.83 145.02 1104.89 144.311 1104.16 143.396L1106.37 141.156C1106.82 141.828 1107.42 142.379 1108.16 142.808C1108.91 143.237 1109.8 143.452 1110.82 143.452C1111.55 143.452 1112.13 143.349 1112.56 143.144C1113.01 142.92 1113.23 142.575 1113.23 142.108C1113.23 141.809 1113.13 141.557 1112.92 141.352C1112.72 141.128 1112.31 140.951 1111.69 140.82L1109.23 140.316C1107.6 139.98 1106.44 139.476 1105.75 138.804C1105.08 138.113 1104.75 137.227 1104.75 136.144C1104.75 135.379 1104.97 134.66 1105.42 133.988C1105.88 133.316 1106.58 132.775 1107.49 132.364C1108.4 131.935 1109.54 131.72 1110.91 131.72C1112.31 131.72 1113.52 131.944 1114.55 132.392C1115.59 132.821 1116.41 133.465 1117.01 134.324L1114.71 136.564C1114.3 135.911 1113.76 135.416 1113.09 135.08C1112.44 134.725 1111.75 134.548 1111.02 134.548C1110.5 134.548 1110.05 134.604 1109.67 134.716C1109.3 134.828 1109.02 134.987 1108.83 135.192C1108.65 135.379 1108.55 135.621 1108.55 135.92C1108.55 136.219 1108.68 136.48 1108.95 136.704C1109.21 136.909 1109.68 137.087 1110.37 137.236L1113.23 137.824C1114.61 138.104 1115.6 138.58 1116.2 139.252C1116.8 139.905 1117.09 140.699 1117.09 141.632C1117.09 142.528 1116.85 143.331 1116.37 144.04C1115.9 144.731 1115.2 145.281 1114.27 145.692C1113.35 146.084 1112.22 146.28 1110.88 146.28ZM1122.08 129.984C1121.28 129.984 1120.68 129.816 1120.29 129.48C1119.9 129.125 1119.7 128.612 1119.7 127.94C1119.7 127.249 1119.9 126.736 1120.29 126.4C1120.68 126.045 1121.28 125.868 1122.08 125.868C1122.89 125.868 1123.48 126.045 1123.88 126.4C1124.27 126.736 1124.46 127.249 1124.46 127.94C1124.46 128.612 1124.27 129.125 1123.88 129.48C1123.48 129.816 1122.89 129.984 1122.08 129.984ZM1123.99 132V146H1120.15V132H1123.99ZM1131.84 125.868V141.688C1131.84 142.341 1131.95 142.799 1132.17 143.06C1132.4 143.321 1132.77 143.452 1133.29 143.452C1133.61 143.452 1133.87 143.433 1134.08 143.396C1134.28 143.34 1134.54 143.265 1134.86 143.172L1134.52 145.692C1134.21 145.879 1133.8 146.019 1133.32 146.112C1132.85 146.224 1132.39 146.28 1131.92 146.28C1130.56 146.28 1129.56 145.953 1128.92 145.3C1128.31 144.628 1128 143.564 1128 142.108V125.868H1131.84ZM1149.61 132L1143.95 146.868C1143.51 148.137 1143 149.145 1142.44 149.892C1141.9 150.639 1141.27 151.18 1140.54 151.516C1139.83 151.852 1138.98 152.02 1137.99 152.02C1137.26 152.02 1136.59 151.927 1135.97 151.74C1135.38 151.572 1134.85 151.348 1134.41 151.068L1135.22 148.296C1135.57 148.576 1135.95 148.772 1136.34 148.884C1136.73 149.015 1137.18 149.08 1137.68 149.08C1138.2 149.08 1138.65 148.968 1139.03 148.744C1139.42 148.52 1139.74 148.072 1140.01 147.4L1140.48 146.196L1138.94 142.556L1134.66 132H1138.91L1141.57 140.4L1142.3 143.2L1143.17 140.232L1145.72 132H1149.61ZM997.99 170.068C997.99 169.265 997.757 168.64 997.29 168.192C996.842 167.744 996.245 167.52 995.498 167.52C994.807 167.52 994.201 167.697 993.678 168.052C993.155 168.407 992.773 168.995 992.53 169.816L989.254 168.808C989.571 167.576 990.262 166.587 991.326 165.84C992.409 165.093 993.855 164.72 995.666 164.72C996.898 164.72 997.971 164.916 998.886 165.308C999.801 165.681 1000.51 166.251 1001.01 167.016C1001.54 167.781 1001.8 168.743 1001.8 169.9V175.584C1001.8 176.293 1002.13 176.648 1002.81 176.648C1003.12 176.648 1003.42 176.601 1003.7 176.508L1003.48 178.888C1002.99 179.131 1002.39 179.252 1001.66 179.252C1001 179.252 1000.42 179.14 999.894 178.916C999.371 178.692 998.961 178.356 998.662 177.908C998.363 177.441 998.214 176.863 998.214 176.172V176.06L998.886 175.948C998.774 176.657 998.466 177.264 997.962 177.768C997.458 178.253 996.842 178.627 996.114 178.888C995.405 179.149 994.667 179.28 993.902 179.28C992.95 179.28 992.129 179.14 991.438 178.86C990.747 178.561 990.215 178.132 989.842 177.572C989.469 177.012 989.282 176.321 989.282 175.5C989.282 174.455 989.618 173.605 990.29 172.952C990.962 172.28 991.923 171.823 993.174 171.58L998.438 170.516L998.41 172.896L995.05 173.568C994.415 173.699 993.93 173.876 993.594 174.1C993.277 174.305 993.118 174.651 993.118 175.136C993.118 175.603 993.286 175.957 993.622 176.2C993.977 176.443 994.397 176.564 994.882 176.564C995.274 176.564 995.657 176.517 996.03 176.424C996.403 176.331 996.739 176.181 997.038 175.976C997.337 175.771 997.57 175.491 997.738 175.136C997.906 174.781 997.99 174.352 997.99 173.848V170.068ZM1006.09 179V165H1009.53L1009.76 169.2L1009.28 168.752C1009.5 167.837 1009.86 167.091 1010.34 166.512C1010.83 165.915 1011.42 165.467 1012.11 165.168C1012.82 164.869 1013.59 164.72 1014.43 164.72C1015.4 164.72 1016.26 164.907 1017.01 165.28C1017.77 165.653 1018.37 166.223 1018.8 166.988C1019.25 167.735 1019.47 168.677 1019.47 169.816V179H1015.64V170.908C1015.64 169.713 1015.4 168.892 1014.94 168.444C1014.47 167.977 1013.86 167.744 1013.12 167.744C1012.59 167.744 1012.08 167.875 1011.58 168.136C1011.09 168.379 1010.69 168.78 1010.37 169.34C1010.07 169.9 1009.92 170.647 1009.92 171.58V179H1006.09ZM1036.06 165L1030.41 179.868C1029.96 181.137 1029.46 182.145 1028.9 182.892C1028.36 183.639 1027.72 184.18 1026.99 184.516C1026.28 184.852 1025.43 185.02 1024.44 185.02C1023.72 185.02 1023.04 184.927 1022.43 184.74C1021.83 184.572 1021.31 184.348 1020.86 184.068L1021.67 181.296C1022.03 181.576 1022.4 181.772 1022.79 181.884C1023.18 182.015 1023.63 182.08 1024.14 182.08C1024.66 182.08 1025.11 181.968 1025.48 181.744C1025.87 181.52 1026.2 181.072 1026.46 180.4L1026.94 179.196L1025.4 175.556L1021.11 165H1025.37L1028.03 173.4L1028.76 176.2L1029.62 173.232L1032.17 165H1036.06ZM1056.25 165H1060.34L1055.86 179H1051.43L1048.38 169.48L1045.44 179H1041.02L1036.54 165H1040.63L1043.43 175.724L1046.53 165H1050.34L1053.48 175.724L1056.25 165ZM1062.72 179V158.868H1066.55V167.38C1067 166.484 1067.62 165.821 1068.4 165.392C1069.19 164.944 1070.07 164.72 1071.06 164.72C1072.03 164.72 1072.89 164.907 1073.64 165.28C1074.4 165.653 1075 166.223 1075.43 166.988C1075.88 167.735 1076.1 168.677 1076.1 169.816V179H1072.27V170.936C1072.27 169.723 1072.03 168.892 1071.57 168.444C1071.1 167.977 1070.5 167.744 1069.77 167.744C1069.23 167.744 1068.71 167.875 1068.21 168.136C1067.72 168.379 1067.32 168.789 1067 169.368C1066.7 169.928 1066.55 170.675 1066.55 171.608V179H1062.72ZM1086.55 179.28C1085.07 179.28 1083.79 178.991 1082.69 178.412C1081.6 177.833 1080.76 177.003 1080.17 175.92C1079.57 174.837 1079.27 173.531 1079.27 172C1079.27 170.469 1079.57 169.163 1080.17 168.08C1080.76 166.997 1081.59 166.167 1082.66 165.588C1083.74 165.009 1084.97 164.72 1086.35 164.72C1087.77 164.72 1088.98 165.009 1089.97 165.588C1090.95 166.148 1091.71 166.923 1092.23 167.912C1092.76 168.883 1093.02 169.993 1093.02 171.244C1093.02 171.617 1093.01 171.972 1092.99 172.308C1092.97 172.644 1092.94 172.943 1092.91 173.204H1081.73V170.544H1091.23L1089.38 171.216C1089.38 170.04 1089.11 169.135 1088.57 168.5C1088.04 167.865 1087.3 167.548 1086.33 167.548C1085.62 167.548 1085 167.716 1084.48 168.052C1083.97 168.388 1083.59 168.892 1083.33 169.564C1083.07 170.217 1082.94 171.048 1082.94 172.056C1082.94 173.045 1083.08 173.867 1083.36 174.52C1083.66 175.155 1084.07 175.631 1084.59 175.948C1085.13 176.265 1085.77 176.424 1086.52 176.424C1087.34 176.424 1088.01 176.265 1088.51 175.948C1089.01 175.631 1089.41 175.192 1089.69 174.632L1092.74 175.808C1092.44 176.536 1091.98 177.161 1091.37 177.684C1090.77 178.207 1090.05 178.608 1089.21 178.888C1088.39 179.149 1087.5 179.28 1086.55 179.28ZM1096.27 179V165H1099.6L1099.85 167.744C1100.23 166.773 1100.77 166.027 1101.48 165.504C1102.2 164.981 1103.11 164.72 1104.19 164.72C1104.51 164.72 1104.8 164.748 1105.06 164.804C1105.32 164.86 1105.54 164.935 1105.7 165.028L1105.26 168.248C1105.07 168.173 1104.84 168.117 1104.56 168.08C1104.29 168.043 1103.95 168.024 1103.52 168.024C1102.96 168.024 1102.42 168.164 1101.9 168.444C1101.37 168.705 1100.94 169.116 1100.61 169.676C1100.27 170.217 1100.1 170.908 1100.1 171.748V179H1096.27ZM1114.3 179.28C1112.83 179.28 1111.54 178.991 1110.44 178.412C1109.36 177.833 1108.52 177.003 1107.92 175.92C1107.32 174.837 1107.02 173.531 1107.02 172C1107.02 170.469 1107.32 169.163 1107.92 168.08C1108.52 166.997 1109.35 166.167 1110.41 165.588C1111.49 165.009 1112.73 164.72 1114.11 164.72C1115.53 164.72 1116.73 165.009 1117.72 165.588C1118.71 166.148 1119.46 166.923 1119.99 167.912C1120.51 168.883 1120.77 169.993 1120.77 171.244C1120.77 171.617 1120.76 171.972 1120.74 172.308C1120.72 172.644 1120.7 172.943 1120.66 173.204H1109.49V170.544H1118.98L1117.13 171.216C1117.13 170.04 1116.86 169.135 1116.32 168.5C1115.8 167.865 1115.05 167.548 1114.08 167.548C1113.37 167.548 1112.75 167.716 1112.23 168.052C1111.73 168.388 1111.34 168.892 1111.08 169.564C1110.82 170.217 1110.69 171.048 1110.69 172.056C1110.69 173.045 1110.83 173.867 1111.11 174.52C1111.41 175.155 1111.82 175.631 1112.34 175.948C1112.88 176.265 1113.53 176.424 1114.28 176.424C1115.1 176.424 1115.76 176.265 1116.26 175.948C1116.77 175.631 1117.16 175.192 1117.44 174.632L1120.49 175.808C1120.19 176.536 1119.74 177.161 1119.12 177.684C1118.52 178.207 1117.8 178.608 1116.96 178.888C1116.14 179.149 1115.26 179.28 1114.3 179.28Z" fill="#36393F"/>
<g filter="url(#filter4_d_692_3151)">
<path d="M1009 44.7936L1037.3 73.214C1046.31 82.262 1060.91 82.262 1069.9 73.214L1098.2 44.7936L1053.6 0L1009 44.7936Z" fill="#5695FB"/>
</g>
<defs>
<filter id="filter0_d_692_3151" x="26" y="0" width="109.204" height="100" filterUnits="userSpaceOnUse" color-interpolation-filters="sRGB">
<feFlood flood-opacity="0" result="BackgroundImageFix"/>
<feColorMatrix in="SourceAlpha" type="matrix" values="0 0 0 0 0 0 0 0 0 0 0 0 0 0 0 0 0 0 127 0" result="hardAlpha"/>
<feOffset dy="10"/>
<feGaussianBlur stdDeviation="5"/>
<feColorMatrix type="matrix" values="0 0 0 0 0 0 0 0 0 0 0 0 0 0 0 0 0 0 0.1 0"/>
<feBlend mode="normal" in2="BackgroundImageFix" result="effect1_dropShadow_692_3151"/>
<feBlend mode="normal" in="SourceGraphic" in2="effect1_dropShadow_692_3151" result="shape"/>
</filter>
<filter id="filter1_d_692_3151" x="506" y="0" width="109.204" height="100" filterUnits="userSpaceOnUse" color-interpolation-filters="sRGB">
<feFlood flood-opacity="0" result="BackgroundImageFix"/>
<feColorMatrix in="SourceAlpha" type="matrix" values="0 0 0 0 0 0 0 0 0 0 0 0 0 0 0 0 0 0 127 0" result="hardAlpha"/>
<feOffset dy="10"/>
<feGaussianBlur stdDeviation="5"/>
<feColorMatrix type="matrix" values="0 0 0 0 0 0 0 0 0 0 0 0 0 0 0 0 0 0 0.1 0"/>
<feBlend mode="normal" in2="BackgroundImageFix" result="effect1_dropShadow_692_3151"/>
<feBlend mode="normal" in="SourceGraphic" in2="effect1_dropShadow_692_3151" result="shape"/>
</filter>
<filter id="filter2_d_692_3151" x="255" y="227" width="109.204" height="100" filterUnits="userSpaceOnUse" color-interpolation-filters="sRGB">
<feFlood flood-opacity="0" result="BackgroundImageFix"/>
<feColorMatrix in="SourceAlpha" type="matrix" values="0 0 0 0 0 0 0 0 0 0 0 0 0 0 0 0 0 0 127 0" result="hardAlpha"/>
<feOffset dy="10"/>
<feGaussianBlur stdDeviation="5"/>
<feColorMatrix type="matrix" values="0 0 0 0 0 0 0 0 0 0 0 0 0 0 0 0 0 0 0.1 0"/>
<feBlend mode="normal" in2="BackgroundImageFix" result="effect1_dropShadow_692_3151"/>
<feBlend mode="normal" in="SourceGraphic" in2="effect1_dropShadow_692_3151" result="shape"/>
</filter>
<filter id="filter3_d_692_3151" x="757" y="216" width="109.204" height="100" filterUnits="userSpaceOnUse" color-interpolation-filters="sRGB">
<feFlood flood-opacity="0" result="BackgroundImageFix"/>
<feColorMatrix in="SourceAlpha" type="matrix" values="0 0 0 0 0 0 0 0 0 0 0 0 0 0 0 0 0 0 127 0" result="hardAlpha"/>
<feOffset dy="10"/>
<feGaussianBlur stdDeviation="5"/>
<feColorMatrix type="matrix" values="0 0 0 0 0 0 0 0 0 0 0 0 0 0 0 0 0 0 0.1 0"/>
<feBlend mode="normal" in2="BackgroundImageFix" result="effect1_dropShadow_692_3151"/>
<feBlend mode="normal" in="SourceGraphic" in2="effect1_dropShadow_692_3151" result="shape"/>
</filter>
<filter id="filter4_d_692_3151" x="999" y="0" width="109.203" height="100" filterUnits="userSpaceOnUse" color-interpolation-filters="sRGB">
<feFlood flood-opacity="0" result="BackgroundImageFix"/>
<feColorMatrix in="SourceAlpha" type="matrix" values="0 0 0 0 0 0 0 0 0 0 0 0 0 0 0 0 0 0 127 0" result="hardAlpha"/>
<feOffset dy="10"/>
<feGaussianBlur stdDeviation="5"/>
<feColorMatrix type="matrix" values="0 0 0 0 0 0 0 0 0 0 0 0 0 0 0 0 0 0 0.1 0"/>
<feBlend mode="normal" in2="BackgroundImageFix" result="effect1_dropShadow_692_3151"/>
<feBlend mode="normal" in="SourceGraphic" in2="effect1_dropShadow_692_3151" result="shape"/>
</filter>
</defs>
</svg>
